<svg width="259" height="55" viewBox="0 0 259 55" fill="none" xmlns="http://www.w3.org/2000/svg">
<g opacity="0.4">
<path fill-rule="evenodd" clip-rule="evenodd" d="M28.5035 0H57.007L51.493 35.6013C48.5579 50.4662 33.4035 55 28.5035 55C23.6035 55 8.44912 50.4662 5.50175 35.6013L0 0H28.5035Z" fill="#49585B"/>
<path fill-rule="evenodd" clip-rule="evenodd" d="M55.2631 1.46143H1.6947L6.93856 35.3409C9.70172 49.2024 23.9473 53.538 28.5035 53.538C33.0596 53.538 47.2807 49.2148 50.0684 35.3657L55.2631 1.46143Z" fill="white"/>
<path fill-rule="evenodd" clip-rule="evenodd" d="M32.1632 8.58452C32.4498 8.55824 32.735 8.64788 32.9561 8.83373C33.1772 9.01957 33.3161 9.2864 33.3421 9.57551C33.3682 9.86462 33.2793 10.1523 33.0951 10.3753C32.9108 10.5984 32.6463 10.7384 32.3597 10.7647C32.2178 10.7777 32.0747 10.7624 31.9386 10.7196C31.8026 10.6769 31.6762 10.6075 31.5667 10.5155C31.4573 10.4235 31.3668 10.3106 31.3006 10.1833C31.2344 10.0561 31.1936 9.91686 31.1807 9.77371C31.1678 9.63056 31.183 9.48624 31.2254 9.34901C31.2678 9.21177 31.3366 9.0843 31.4278 8.97388C31.519 8.86345 31.6309 8.77223 31.7571 8.70542C31.8833 8.63862 32.0213 8.59753 32.1632 8.58452ZM20.1895 10.2568C20.394 10.0533 20.6698 9.93923 20.957 9.93923C21.2443 9.93923 21.5201 10.0533 21.7246 10.2568C21.8748 10.4097 21.9767 10.6039 22.0177 10.8151C22.0586 11.0263 22.0366 11.245 21.9546 11.4436C21.8725 11.6422 21.734 11.8119 21.5565 11.9313C21.3789 12.0506 21.1704 12.1143 20.957 12.1143C20.7437 12.1143 20.5351 12.0506 20.3576 11.9313C20.1801 11.8119 20.0416 11.6422 19.9595 11.4436C19.8774 11.245 19.8555 11.0263 19.8964 10.8151C19.9373 10.6039 20.0393 10.4097 20.1895 10.2568ZM12.0842 19.3244C12.1137 19.1136 12.2037 18.9161 12.3432 18.7564C12.4826 18.5966 12.6653 18.4815 12.8689 18.4253C13.0724 18.369 13.2878 18.3741 13.4885 18.44C13.6892 18.5058 13.8664 18.6294 13.9982 18.7957C14.1301 18.9619 14.2108 19.1634 14.2304 19.3753C14.25 19.5873 14.2076 19.8004 14.1086 19.9883C14.0095 20.1763 13.8581 20.3309 13.6729 20.433C13.4878 20.5352 13.277 20.5804 13.0667 20.5631C12.9206 20.5494 12.7787 20.5061 12.6495 20.4358C12.5203 20.3655 12.4064 20.2697 12.3148 20.1541C12.2231 20.0385 12.1554 19.9055 12.1158 19.7629C12.0762 19.6204 12.0655 19.4712 12.0842 19.3244ZM11.6421 31.5136C11.5209 31.3365 11.4543 31.1271 11.4508 30.9119C11.4473 30.6967 11.5071 30.4853 11.6225 30.3043C11.738 30.1233 11.904 29.9808 12.0996 29.8948C12.2952 29.8089 12.5116 29.7832 12.7217 29.8211C12.9317 29.859 13.1259 29.9587 13.2798 30.1078C13.4338 30.2568 13.5405 30.4485 13.5866 30.6587C13.6327 30.8688 13.6161 31.088 13.5388 31.2886C13.4616 31.4893 13.3272 31.6624 13.1527 31.7861C13.0359 31.8688 12.9041 31.9274 12.7648 31.9585C12.6255 31.9896 12.4815 31.9925 12.3411 31.9672C12.2007 31.9419 12.0666 31.8887 11.9467 31.8109C11.8267 31.733 11.7232 31.632 11.6421 31.5136ZM19.0842 41.1386C18.8068 41.063 18.5701 40.8802 18.4253 40.6298C18.2805 40.3794 18.2392 40.0816 18.3105 39.8007C18.3658 39.5929 18.4808 39.4062 18.641 39.2642C18.8013 39.1222 18.9996 39.0312 19.211 39.0026C19.4224 38.9741 19.6375 39.0093 19.8291 39.1038C20.0208 39.1984 20.1804 39.348 20.2879 39.5338C20.3953 39.7197 20.4459 39.9335 20.4331 40.1482C20.4204 40.363 20.3449 40.5692 20.2162 40.7408C20.0875 40.9124 19.9113 41.0417 19.7099 41.1125C19.5085 41.1833 19.2908 41.1924 19.0842 41.1386ZM30.9105 43.6904C30.6519 43.7915 30.3648 43.7897 30.1075 43.6853C29.8501 43.5809 29.6418 43.3816 29.5247 43.128C29.4075 42.8744 29.3904 42.5853 29.4767 42.3194C29.563 42.0535 29.7463 41.8306 29.9895 41.696C30.2481 41.5949 30.5352 41.5967 30.7926 41.7011C31.0499 41.8055 31.2583 42.0047 31.3754 42.2584C31.4925 42.512 31.5097 42.8011 31.4234 43.067C31.337 43.3329 31.1537 43.5557 30.9105 43.6904ZM41.5948 37.9674C41.5048 38.1628 41.3594 38.3269 41.177 38.4391C40.9946 38.5512 40.7834 38.6063 40.57 38.5974C40.3566 38.5885 40.1506 38.516 39.978 38.3891C39.8054 38.2621 39.6739 38.0865 39.6003 37.8843C39.5266 37.682 39.514 37.4623 39.564 37.2529C39.614 37.0434 39.7245 36.8536 39.8814 36.7074C40.0383 36.5612 40.2346 36.4652 40.4456 36.4315C40.6565 36.3978 40.8727 36.428 41.0667 36.5181C41.197 36.5768 41.3143 36.6612 41.4117 36.7663C41.5091 36.8715 41.5847 36.9953 41.6339 37.1304C41.6831 37.2654 41.705 37.4091 41.6983 37.5529C41.6916 37.6966 41.6564 37.8376 41.5948 37.9674ZM46.1386 26.6701C46.2162 26.9411 46.1867 27.2319 46.0561 27.4814C45.9256 27.7309 45.7042 27.9196 45.4386 28.0079C45.2958 28.0629 45.1431 28.0871 44.9904 28.0788C44.8377 28.0706 44.6885 28.0301 44.5523 27.96C44.4161 27.8899 44.296 27.7918 44.1997 27.6719C44.1035 27.5521 44.0332 27.4132 43.9935 27.2643C43.9538 27.1154 43.9455 26.9597 43.9691 26.8073C43.9928 26.655 44.0479 26.5093 44.1308 26.3797C44.2138 26.2502 44.3228 26.1396 44.4507 26.0552C44.5787 25.9708 44.7228 25.9144 44.8737 25.8897C45.1437 25.8294 45.4263 25.877 45.6622 26.0225C45.8981 26.1681 46.0689 26.4002 46.1386 26.6701ZM42.4544 15.0507C42.6332 15.1745 42.7715 15.349 42.8517 15.5523C42.9319 15.7555 42.9503 15.9782 42.9047 16.192C42.859 16.4058 42.7514 16.6011 42.5954 16.753C42.4394 16.905 42.2421 17.0067 42.0286 17.0452C41.8152 17.0837 41.5952 17.0573 41.3967 16.9693C41.1981 16.8814 41.03 16.7358 40.9137 16.5512C40.7974 16.3666 40.7382 16.1513 40.7436 15.9326C40.7489 15.7139 40.8187 15.5018 40.9439 15.3233C41.107 15.0945 41.3516 14.9384 41.6263 14.8876C41.9011 14.8368 42.1846 14.8953 42.4176 15.0507H42.4544ZM49.1228 35.205C46.4579 48.3356 32.8755 52.5474 28.5649 52.5474C24.2544 52.5474 10.5737 48.3109 7.93336 35.1555L2.88599 2.47754H54.1211L49.1228 35.205ZM30.2474 9.83565C29.7562 10.4055 29.6456 10.294 29.3141 10.2197C28.4544 11.0001 29.007 11.0372 28.8842 12.5609C30.3948 12.7095 30.3456 13.267 30.886 13.1307C31.2421 12.214 31.1562 12.0778 31.3158 11.892C31.8807 11.7309 32.0158 11.8176 32.0649 12.0778C31.7088 12.8953 31.5737 13.1059 31.8684 13.3908C32.1632 13.6757 32.4948 13.2546 33.8948 13.8368C34.4965 12.437 35.0123 12.66 35.0369 12.1025C34.2877 11.4708 34.1281 11.5079 33.993 11.2974C34.0544 10.6284 34.2263 10.455 34.4842 10.4674C35.1597 11.0372 35.3316 11.2354 35.7123 11.0248C36.093 10.8143 35.7123 10.3807 36.6825 9.1915C35.4544 8.2129 35.872 7.79173 35.3439 7.59353C34.5456 8.15096 34.5456 8.312 34.2877 8.38632C33.8702 7.56876 34.0298 7.58114 34.2877 7.43249C34.4965 6.28047 34.0421 6.59015 33.1948 5.32664C31.9667 6.14421 31.6228 5.67349 31.2913 6.11943C31.5614 7.06087 31.7088 7.11042 31.7088 7.35817C31.3527 7.82889 31.1439 7.82889 30.9351 7.65547C30.7141 6.80074 30.7018 6.5406 30.2965 6.51583C29.8913 6.49105 29.8913 6.99894 28.4298 7.40772C28.8105 8.89421 28.2702 9.03047 28.5895 9.4888C29.5597 9.4888 29.6579 9.3897 29.9035 9.4888L30.2474 9.83565ZM19.5141 12.4742C19.5141 13.2174 19.3421 13.205 19.0474 13.3661C18.8877 14.5305 19.3298 14.196 20.2755 15.4471C21.5035 14.58 21.8351 15.0384 22.1544 14.58C21.8474 13.651 21.7 13.6014 21.7 13.3413C22.5965 13.1555 22.5351 13.3413 22.5965 13.6386C23.6404 14.1465 23.4684 13.6386 24.9053 13.1555C24.4877 11.6938 25.0158 11.5451 24.6842 11.0868C24.2354 11.1328 23.7844 11.1535 23.3334 11.1487C22.9527 10.5913 22.9649 10.3559 23.186 10.1949C24.0702 10.1949 24.3158 10.1949 24.4141 9.84803C24.5123 9.50119 24.0334 9.32776 23.9965 7.80412C22.4737 7.80412 22.4737 7.25907 21.9579 7.45727C21.6877 8.4111 21.7983 8.53497 21.6509 8.69601C21.0983 8.89421 20.9632 8.83227 20.8895 8.58452C21.1597 7.74218 21.2702 7.50682 20.9509 7.25907C20.6316 7.01132 20.3491 7.45727 18.8877 7.0361C18.4334 8.48542 17.9053 8.27484 17.9298 8.88182C18.7404 9.42686 18.8877 9.36493 19.0474 9.57551C18.3965 10.294 18.3597 10.1453 18.1018 9.92236C16.972 10.1577 17.4386 10.4674 16.579 11.7309C17.807 12.6228 17.4877 13.0811 18.0158 13.2298C18.7895 12.6104 18.7772 12.4494 19.0228 12.3627L19.5141 12.4742ZM12.9684 21.4426C13.4351 22.0248 13.3123 22.1239 13.1895 22.446C13.8035 23.4246 13.9386 22.892 15.4 23.2636C15.8176 21.8019 16.3334 21.9505 16.2965 21.3931C15.4614 20.8728 15.3141 20.9347 15.1544 20.7365C15.7316 20.0181 15.7807 20.1667 16.0386 20.3773C17.1562 20.1048 16.6895 19.8075 17.5 18.5192C16.272 17.6769 16.5544 17.2061 16.0018 17.0823C15.2527 17.714 15.2772 17.8751 15.0316 17.9742C14.393 17.8007 14.2579 17.6025 14.3193 17.3424C14.9948 16.7726 15.2158 16.6363 15.0684 16.2523C14.9211 15.8683 14.4421 16.1037 13.4474 15.0136C12.293 16.0046 11.9369 15.571 11.6667 16.0665C12.0597 16.9584 12.2193 16.9832 12.2439 17.3052C11.372 17.5778 11.4088 17.4291 11.3228 17.107C10.2298 16.7106 10.4509 17.2185 9.07546 17.8255C9.64037 19.2377 9.13686 19.4483 9.50528 19.857C10.4877 19.7579 10.5614 19.6093 10.807 19.6712C11.2123 20.1048 11.1755 20.3154 10.979 20.4764C10.0948 20.5507 9.83686 20.4764 9.7509 20.9224C9.66493 21.3683 10.1562 21.4055 10.3035 22.9291C11.8141 22.8176 11.8509 23.3627 12.3667 23.1397C12.5632 22.1735 12.4527 22.0496 12.5755 21.8266L12.9684 21.4426ZM13.6807 32.5913C14.4053 32.7275 14.3807 32.8886 14.479 33.2106C15.5842 33.5699 15.3386 33.0744 16.7018 32.4055C16.0755 31.0181 16.5913 30.7951 16.1983 30.3863C15.2281 30.535 15.1544 30.6712 14.8965 30.6341C14.8965 29.705 15.0193 29.7917 15.3509 29.7917C16.0263 28.8503 15.486 28.9246 15.2772 27.4133C13.779 27.5744 13.7176 27.0293 13.2141 27.2771C13.1845 27.7174 13.1312 28.1557 13.0544 28.5902C12.4404 28.8751 12.207 28.8131 12.0965 28.5902C12.2562 27.7106 12.3298 27.4629 11.9737 27.2647C11.6176 27.0665 11.4088 27.5496 9.91055 27.3266C9.65265 28.8379 9.1123 28.7388 9.21055 29.2962C10.0948 29.7174 10.2298 29.6431 10.4386 29.8165C9.94739 30.5969 9.88599 30.4483 9.60353 30.2624C8.51055 30.6588 9.01406 30.9066 8.37546 32.2692C9.72634 32.9877 9.45616 33.5079 10.0088 33.5079C10.6842 32.8019 10.6597 32.6408 10.8807 32.517C11.4825 33.285 11.3228 33.3097 11.0649 33.5203C11.0649 34.6847 11.4825 34.276 12.5632 35.3537C13.6562 34.276 14.0369 34.6847 14.2702 34.1769C13.8158 33.3097 13.6562 33.285 13.607 33.0372L13.6807 32.5913ZM21.3193 40.6431C21.9702 40.2838 22.0316 40.4201 22.3141 40.6431C23.3948 40.1971 22.879 39.9742 23.5421 38.5868C22.1667 37.9179 22.4123 37.4224 21.8597 37.348C21.2088 38.0789 21.2456 38.2399 21.0246 38.3638C20.4105 37.6701 20.5702 37.6453 20.8281 37.4347C20.7421 36.2703 20.386 36.6791 19.2684 35.651C18.2123 36.7534 17.8193 36.3694 17.5983 36.8897C18.0895 37.7444 18.2491 37.7444 18.2983 38.0046C17.3281 38.5001 17.3527 38.339 17.2176 38.0046C16.0755 37.7692 16.3825 38.2399 15.0807 39.0451C15.8544 40.3582 15.3755 40.6307 15.8053 40.9899C16.7509 40.7546 16.8 40.6059 17.0334 40.6183C17.1562 41.535 17.0334 41.4606 16.6772 41.4978C16.1 42.5136 16.6772 42.3773 16.9965 43.8638C18.4702 43.5293 18.5807 44.0744 19.0597 43.7771C19.0362 43.3356 19.0362 42.8931 19.0597 42.4516C19.5632 42.1296 19.7597 42.2039 19.8825 42.4516C19.7965 43.3435 19.7351 43.5913 20.1035 43.7647C20.472 43.9381 20.6562 43.4426 22.1544 43.5541C22.3141 42.0305 22.8544 42.0924 22.7193 41.5474C21.8105 41.1881 21.6755 41.2748 21.4913 41.1014L21.3193 40.6431ZM32.286 41.8818C33.2439 41.1634 33.5141 41.1386 33.5141 40.7298C33.5141 40.321 33.0351 40.321 32.6298 38.8469C31.1562 39.2309 31.0211 38.6859 30.5667 39.0079C30.5667 39.9865 30.6649 40.0857 30.5667 40.3334C30.0877 40.6679 29.9281 40.6307 29.793 40.4201C29.793 39.5282 29.9158 39.2681 29.5351 39.1194C29.1544 38.9708 28.9948 39.4539 27.4842 39.392C27.4105 40.8784 26.8702 40.8784 27.0176 41.3739C27.9509 41.7208 28.0737 41.6217 28.2456 41.7827C28.4298 42.4269 28.3193 42.6498 28.0737 42.7242C27.2386 42.4145 27.0176 42.2906 26.7597 42.6127C26.5018 42.9347 26.9316 43.232 26.4527 44.6814C27.8895 45.1893 27.6807 45.7095 28.2579 45.7095C28.8351 44.9043 28.7737 44.7557 28.9825 44.607C29.6579 45.2264 29.4983 45.2636 29.2772 45.5113C29.4737 46.6634 29.793 46.2174 31.0088 47.1217C31.9421 45.8829 32.372 46.2546 32.5439 45.7219C31.9667 44.9167 31.807 44.9291 31.7211 44.6814C32.5807 44.223 32.5684 44.3717 32.7281 44.6814C33.8702 44.8548 33.5509 44.3965 34.779 43.4426C33.9193 42.2039 34.386 41.8818 33.9316 41.5474C32.9983 41.857 32.9614 42.0181 32.7035 42.0181L32.286 41.8818ZM41.4842 35.6881C41.2386 34.982 41.3983 34.9325 41.6193 34.6847C41.3737 33.5451 41.0667 34.0034 39.8141 33.1363C38.9298 34.3751 38.4877 34.053 38.3404 34.598C38.9421 35.3661 39.1018 35.3661 39.1877 35.6014C38.4018 36.0845 38.4141 35.9235 38.2421 35.6014C37.1 35.4775 37.4316 35.9111 36.2281 36.8402C37.1246 38.0789 36.6825 38.401 37.1491 38.7106C38.0702 38.3762 38.107 38.2152 38.3772 38.2028C38.9176 38.5992 38.9913 38.8221 38.8316 39.0451C38.0088 39.3548 37.7632 39.4043 37.7632 39.8131C37.7632 40.2219 38.2913 40.16 38.8562 41.5845C40.2807 41.0519 40.4649 41.5845 40.8825 41.2129C40.8088 40.2343 40.6737 40.1476 40.7351 39.8998C41.1895 39.5034 41.3369 39.5282 41.4965 39.7388C41.4965 40.6307 41.4965 40.8784 41.8895 40.9775C42.2825 41.0766 42.3807 40.5811 43.8913 40.482C43.8913 38.9584 44.3825 38.9336 44.1737 38.4134C43.2158 38.178 43.1053 38.2895 42.8842 38.1532C42.6632 37.6082 42.7614 37.4224 43.007 37.3233C43.8544 37.571 44.0877 37.6825 44.3211 37.3233C44.5544 36.964 44.1 36.7287 44.4807 35.2546C43.0193 34.8458 43.1667 34.3007 42.6141 34.3503C42.0983 35.1926 42.1597 35.3289 41.9632 35.5023L41.4842 35.6881ZM44.579 24.9978C43.9527 24.6138 44.0386 24.4775 44.0386 24.1431C43.1299 23.4246 43.1912 23.982 41.6807 24.1431C41.7912 25.6667 41.2509 25.7039 41.4842 26.2118C42.4298 26.41 42.5527 26.2985 42.7123 26.4347C42.9702 26.9674 42.9088 27.1161 42.7123 27.2152C41.8527 26.9922 41.607 26.8931 41.3983 27.2152C41.1895 27.5372 41.6439 27.8097 41.3123 29.3086C42.786 29.6555 42.6509 30.2005 43.2035 30.1386C43.6948 29.2838 43.6211 29.1352 43.8053 28.9618C44.4684 28.8998 44.6649 29.0485 44.7018 29.3086C44.2597 30.0766 44.1 30.2872 44.3702 30.5474C44.6404 30.8075 44.9965 30.4854 46.3351 31.2039C47.072 29.8784 47.5632 30.1634 47.6491 29.6059C46.9614 28.8998 46.8141 28.9246 46.6913 28.6893C47.4281 28.1318 47.4281 28.2929 47.6369 28.5654C48.7913 28.5654 48.4106 28.1566 49.5035 27.1037C48.4842 25.9764 48.8895 25.6048 48.3983 25.3447C47.5141 25.7906 47.5018 25.9393 47.2439 25.9764C46.9369 25.0474 47.0965 25.0845 47.4158 24.973C47.772 23.8706 47.2807 24.1183 46.6176 22.7309C45.2421 23.3627 45.0211 22.8672 44.6281 23.2512C44.7299 23.68 44.8078 24.1142 44.8614 24.5519L44.579 24.9978ZM40.1456 14.7906C39.4088 14.9145 39.3965 14.7906 39.1877 14.4933C38.0334 14.4933 38.4263 14.9145 37.3702 16.0046C38.4263 17.107 38.0334 17.4911 38.5369 17.7264C39.3965 17.2557 39.4088 17.107 39.6667 17.0575C39.9983 17.9122 39.8509 17.8874 39.5316 18.0113C39.2123 19.1262 39.7035 18.8661 40.4035 20.2163C41.7544 19.535 42 20.0429 42.3807 19.6341C42.2088 18.6555 42.0614 18.5935 42.0983 18.3334C42.5649 17.8627 42.8106 17.8379 42.9948 18.0237C43.1421 18.9032 43.1544 19.1634 43.5597 19.2624C43.9649 19.3615 44.0018 18.7917 45.4755 18.482C45.2053 16.9832 45.7579 16.8841 45.4755 16.401C44.5053 16.3019 44.407 16.401 44.1737 16.3266C43.879 15.8064 43.9158 15.6701 44.1737 15.5462C45.0456 15.6701 45.2913 15.732 45.4755 15.3728C45.6597 15.0136 45.1684 14.8154 45.3404 13.2917C43.8421 13.0935 43.9158 12.5361 43.3632 12.66C42.9702 13.5643 43.0562 13.7005 42.8842 13.8987C42.3193 14.035 42.1474 13.8987 42.1105 13.6386C42.4913 12.8334 42.6386 12.6228 42.3439 12.3998C42.0491 12.1769 41.7298 12.5113 40.3421 11.8796C39.6912 13.267 39.1877 13.0192 39.1141 13.5766C39.8509 14.2332 39.9983 14.196 40.1334 14.419L40.1456 14.7906Z" fill="#49585B"/>
<path fill-rule="evenodd" clip-rule="evenodd" d="M119.319 23.8457C119.319 24.2049 119.196 24.4898 118.091 24.5641V25.0473H126.11V24.5641C125.054 24.4898 124.882 24.2049 124.882 23.8457V11.2353C136.033 23.0777 136.524 23.3873 136.524 23.9076C136.524 24.1925 135.96 24.5641 135.198 24.5641V25.0473H144.139V24.5641C143.082 24.4898 142.91 24.2049 142.91 23.8457V5.12833C142.91 4.7691 143.033 4.48419 144.139 4.39748V3.92676H136.414V4.39748C136.967 4.39748 137.298 4.64523 137.298 5.12833V14.7286C134.339 11.6193 128.775 5.53712 128.775 5.09117C128.775 4.85581 128.677 4.44703 129.647 4.39748V3.92676H118.14V4.39748C119.196 4.48419 119.368 4.7691 119.368 5.12833L119.319 23.8457Z" fill="#49585B"/>
<path fill-rule="evenodd" clip-rule="evenodd" d="M149.456 23.9445L149.935 24.0684C150.168 23.8206 150.414 23.5357 150.733 23.5357C151.642 23.5357 154.59 25.3814 161.233 25.3814C169.83 25.3814 172.004 20.9096 172.004 18.5312C172.004 9.29023 156.825 13.5763 156.825 9.98392C156.825 9.06726 157.181 7.79135 160.644 7.79135C164.389 7.79135 168.528 8.81951 168.528 9.82289V10.2688L169.007 10.5042L172.237 4.5087L171.807 4.34766C171.685 4.53171 171.521 4.68315 171.329 4.7889C171.136 4.89465 170.921 4.95154 170.702 4.95464C169.633 4.95464 166.047 3.54248 160.595 3.54248C154.737 3.54248 150.475 6.55262 150.463 10.5661C150.463 18.7666 165.47 15.5211 165.36 18.4817C165.36 20.0549 164.463 20.8229 161.098 20.86C156.96 20.86 152.121 19.6213 152.121 18.5188C152.102 18.2359 152.127 17.9517 152.195 17.6765L151.556 17.565L149.456 23.9445Z" fill="#49585B"/>
<path fill-rule="evenodd" clip-rule="evenodd" d="M176.744 23.9445L177.223 24.0684C177.468 23.8206 177.702 23.5357 178.021 23.5357C178.942 23.5357 181.89 25.3814 188.533 25.3814C197.13 25.3814 199.304 20.9096 199.304 18.5312C199.304 9.29023 184.112 13.5763 184.112 9.98392C184.112 9.06726 184.468 7.79135 187.944 7.79135C191.628 7.79135 195.828 8.81951 195.828 9.82289V10.2688L196.295 10.5042L199.537 4.5087L199.095 4.34766C198.978 4.5281 198.82 4.6775 198.634 4.78318C198.448 4.88885 198.24 4.94767 198.026 4.95464C196.946 4.95464 193.372 3.54248 187.907 3.54248C182.061 3.54248 177.788 6.55262 177.788 10.5661C177.788 18.7666 192.795 15.5211 192.684 18.4817C192.623 20.0549 191.788 20.8229 188.411 20.86C184.272 20.86 179.446 19.6213 179.446 18.5188C179.426 18.2359 179.451 17.9517 179.519 17.6765L178.881 17.565L176.744 23.9445Z" fill="#49585B"/>
<path fill-rule="evenodd" clip-rule="evenodd" d="M222.281 11.0499H221.777C221.726 11.3313 221.571 11.5827 221.343 11.7529C221.115 11.9231 220.831 11.9995 220.549 11.9665H212.297V8.67148H226.211C226.665 8.67148 226.837 8.86968 226.96 9.79873H227.463V2.7627H226.96C226.837 3.69175 226.665 3.88995 226.211 3.88995H204.744V4.37306C205.8 4.45977 205.972 4.73229 205.972 5.10391V23.8089C205.972 24.1805 205.837 24.453 204.744 24.5397V25.0228H226.211C226.665 25.0228 226.837 25.221 226.96 25.9023H227.463V18.9158H226.96C226.837 19.9192 226.665 20.1546 226.211 20.1546H212.26V16.4384H220.512C220.794 16.4054 221.078 16.4817 221.306 16.652C221.534 16.8222 221.689 17.0735 221.74 17.355H222.281V11.0499Z" fill="#49585B"/>
<path fill-rule="evenodd" clip-rule="evenodd" d="M63.4053 24.4155L64.1667 24.8491C64.6702 24.4155 64.8176 24.2173 65.3211 24.2173C67.9946 25.2172 70.834 25.6882 73.6842 25.6047C77.9211 25.3818 83.1526 25.1092 84.1719 17.9122V1.96959C84.1719 1.53604 84.2947 0.594595 85.8421 0.582207V0H76.0175V0.582207C77.2456 0.681306 77.2456 1.39977 77.2456 1.82095V16.6858C77.2726 17.1418 77.1997 17.5983 77.032 18.0227C76.8643 18.447 76.6059 18.8289 76.2753 19.1412C75.9446 19.4534 75.5499 19.6883 75.119 19.8291C74.6881 19.97 74.2318 20.0133 73.7825 19.9561C72.3211 19.9561 67.4702 19.0766 67.1386 17.4786C67.1676 17.0963 67.2376 16.7184 67.3474 16.3514L66.7456 16.1655L63.4053 24.4155Z" fill="#49585B"/>
<path fill-rule="evenodd" clip-rule="evenodd" d="M105.884 20.8726C106.044 21.3928 107.309 23.8951 107.309 24.0561C107.309 24.2172 107.1 24.5021 106.511 24.5392V25.0224H114.37V24.5392C113.867 24.5392 113.609 24.3039 113.142 23.3005C110.526 17.2307 105.307 5.21492 105.307 4.95478C105.307 4.69465 105.614 4.47168 106.068 4.42213V3.90186H96.3176V4.37258C96.4891 4.39238 96.6495 4.46863 96.7738 4.58954C96.8981 4.71044 96.9794 4.86928 97.0053 5.0415C97.0053 5.27686 88.4088 22.6935 88.0772 23.6226C88.0118 23.8708 87.8714 24.0924 87.6756 24.2566C87.4798 24.4209 87.2382 24.5196 86.9843 24.5392V25.0224H94.193V24.5392C93.6158 24.5392 93.579 24.3782 93.579 24.1428C94.0352 23.0167 94.5687 21.924 95.1755 20.8726H105.884ZM100.788 9.03023L104.312 17.4908H96.7597L100.788 9.03023Z" fill="#49585B"/>
<path fill-rule="evenodd" clip-rule="evenodd" d="M234.095 23.8457C234.095 24.2049 233.972 24.4898 232.867 24.5641V25.0473H240.886V24.5641C239.83 24.4898 239.658 24.2049 239.658 23.8457V11.2353C250.797 23.0777 251.288 23.3873 251.288 23.9076C251.288 24.1925 250.723 24.5641 249.961 24.5641V25.0473H258.902V24.5641C257.846 24.4898 257.674 24.2049 257.674 23.8457V5.12833C257.674 4.7691 257.809 4.48419 258.902 4.39748V3.92676H251.177V4.39748C251.718 4.39748 252.061 4.64523 252.061 5.12833V14.7286C249.102 11.6193 243.539 5.53712 243.539 5.09117C243.539 4.85581 243.44 4.44703 244.411 4.39748V3.92676H232.818V4.39748C233.874 4.48419 234.046 4.7691 234.046 5.12833L234.095 23.8457Z" fill="#49585B"/>
<path fill-rule="evenodd" clip-rule="evenodd" d="M78.6702 40.6429L78.2404 40.8906C78.3115 40.9929 78.354 41.1128 78.3632 41.2375C78.3632 42.3399 74.9 43.6282 72.3702 43.6282C68.9807 43.6282 66.0702 41.6834 66.0702 38.2645C66.0702 34.8456 68.9807 32.9131 72.3702 32.9131C74.3597 32.9131 77.4544 33.9289 77.6386 34.8208C77.6751 34.9456 77.6958 35.0747 77.7 35.2048L78.007 35.4154L80.3526 31.8107L79.8982 31.4514C79.8123 31.5753 79.6526 31.8478 79.4807 31.8478C79.3088 31.8478 78.5719 31.4514 77.3439 31.1046C75.7488 30.6269 74.0954 30.3767 72.4316 30.3613C67.3597 30.3613 62.8158 33.0989 62.8158 38.3636C62.8158 43.6282 67.3597 46.3534 72.4316 46.3534C76.3246 46.3534 79.6895 44.0122 80.1316 44.0122H80.4754L80.7088 43.7769L78.6702 40.6429Z" fill="#49585B"/>
<path fill-rule="evenodd" clip-rule="evenodd" d="M89.5754 35.1429C92.1666 35.1429 94.9789 36.7533 94.9789 39.59C94.9789 42.4267 92.1666 44.0247 89.5754 44.0247C86.9842 44.0247 84.1719 42.4143 84.1719 39.59C84.1719 36.7657 86.9842 35.1429 89.5754 35.1429ZM89.5754 32.8389C85.8912 32.8389 81.3842 34.9943 81.3842 39.59C81.3842 44.1857 85.8789 46.3287 89.5754 46.3287C93.2719 46.3287 97.7666 44.1733 97.7666 39.59C97.7666 35.0067 93.3333 32.8389 89.5754 32.8389Z" fill="#49585B"/>
<path fill-rule="evenodd" clip-rule="evenodd" d="M99.4737 45.2761C99.5099 45.2221 99.5571 45.1764 99.6121 45.1422C99.6672 45.1081 99.7289 45.0861 99.793 45.0779C100.542 45.0779 101.586 46.3167 105.418 46.3167C108.095 46.3167 112.012 45.4619 111.877 42.0058C111.668 36.4811 102.053 39.7018 102.053 36.5182C102.053 35.4034 103.858 34.9822 105.332 34.9822C107.247 34.9822 109.323 35.8121 109.851 36.5926C109.962 36.7633 110.029 36.959 110.047 37.1624L110.293 37.2615L112.012 34.1275L111.754 33.9417C111.687 33.9987 111.608 34.0413 111.524 34.0668C111.439 34.0924 111.351 34.1004 111.263 34.0903C110.416 34.0903 108.807 32.8516 105.295 32.8516C101.156 32.8516 99.2526 34.9326 99.2526 37.0137C99.2526 43.2074 108.991 39.4293 108.991 42.4889C108.991 44.0126 106.425 44.186 105.307 44.186C103.735 44.186 101.279 43.4056 100.775 42.5757C100.706 42.4556 100.672 42.3181 100.677 42.1793L100.432 42.0554L99.0562 45.0903L99.4737 45.2761Z" fill="#49585B"/>
<path fill-rule="evenodd" clip-rule="evenodd" d="M117.612 46.1804V45.7344C117.121 45.7344 116.9 45.5734 116.9 45.2761V36.927L121.898 46.1804H121.972L127.068 36.9518V45.2761C127.068 45.5734 126.835 45.7344 126.393 45.7344V46.1804H130.372V45.7344C130.308 45.7413 130.243 45.7346 130.181 45.7149C130.12 45.6951 130.063 45.6626 130.014 45.6195C129.966 45.5764 129.927 45.5237 129.899 45.4645C129.872 45.4054 129.858 45.3413 129.856 45.2761V33.8425C129.856 33.5452 130.09 33.4337 130.372 33.4337V32.9878H125.681V33.4461C125.877 33.4461 126 33.5328 126 33.731C125.944 34.0366 125.827 34.3275 125.656 34.5858L121.972 41.0272L118.288 34.5114C118.14 34.2779 118.028 34.0231 117.956 33.7558C117.956 33.5576 118.19 33.4461 118.361 33.4461V33.0002H113.805V33.4461C114.075 33.4461 114.309 33.5576 114.309 33.8549V45.2885C114.309 45.3531 114.296 45.417 114.27 45.4761C114.244 45.5352 114.206 45.5881 114.159 45.6314C114.111 45.6747 114.055 45.7074 113.994 45.7272C113.933 45.7471 113.869 45.7538 113.805 45.7468V46.1928L117.612 46.1804Z" fill="#49585B"/>
<path fill-rule="evenodd" clip-rule="evenodd" d="M158.937 41.5101L158.581 41.7207C158.639 41.8094 158.673 41.9119 158.679 42.018C158.679 42.947 155.756 44.0248 153.632 44.0248C150.77 44.0248 148.302 42.3896 148.302 39.5157C148.302 36.6419 150.758 34.9943 153.632 34.9943C155.302 34.9943 157.918 35.8491 158.065 36.6047C158.075 36.7118 158.075 36.8197 158.065 36.9268L158.421 37.1621L160.398 34.1272L160.018 33.8299C159.944 33.929 159.821 34.152 159.661 34.152C159.502 34.152 158.9 33.8299 157.868 33.5326C156.51 33.1213 155.099 32.9086 153.681 32.9009C149.395 32.9009 145.563 35.2049 145.563 39.652C145.563 44.0991 149.395 46.3907 153.681 46.3907C156.947 46.3907 159.821 44.4088 160.165 44.4088H160.447L160.656 44.2106L158.937 41.5101Z" fill="#49585B"/>
<path fill-rule="evenodd" clip-rule="evenodd" d="M175.97 32.9878V33.4461C176.461 33.4461 176.682 33.6072 176.682 33.9045V41.3369C176.682 45.2761 179.016 46.3786 183.511 46.3786C188.005 46.3786 190.326 45.2761 190.326 41.3369V33.9045C190.326 33.6072 190.56 33.4461 190.94 33.4461V33.0002H186.875V33.4461C187.416 33.4461 187.637 33.6072 187.637 33.9045V41.4236C187.637 43.5295 186.2 44.186 183.609 44.186C181.018 44.186 179.581 43.5295 179.581 41.4236V33.8921C179.581 33.5948 179.802 33.4337 180.133 33.4337V32.9878H175.97Z" fill="#49585B"/>
<path fill-rule="evenodd" clip-rule="evenodd" d="M200.826 35.2917H205.014C205.098 35.283 205.183 35.2923 205.263 35.3189C205.344 35.3454 205.417 35.3888 205.48 35.446C205.542 35.5033 205.592 35.5732 205.626 35.6512C205.66 35.7292 205.678 35.8135 205.677 35.8987H206.132V32.3931H205.677C205.678 32.4778 205.661 32.5617 205.626 32.6392C205.592 32.7166 205.542 32.7858 205.479 32.8421C205.417 32.8984 205.343 32.9406 205.262 32.9657C205.182 32.9908 205.097 32.9983 205.014 32.9877H193.753C193.669 32.9983 193.585 32.9908 193.504 32.9657C193.424 32.9406 193.35 32.8984 193.287 32.8421C193.225 32.7858 193.174 32.7166 193.14 32.6392C193.106 32.5617 193.089 32.4778 193.09 32.3931H192.635V35.9235H193.09C193.089 35.8383 193.106 35.7539 193.14 35.6759C193.174 35.5979 193.224 35.5281 193.287 35.4708C193.349 35.4135 193.423 35.3702 193.503 35.3436C193.584 35.317 193.669 35.3078 193.753 35.3165H197.94V45.3007C197.942 45.3614 197.932 45.4217 197.909 45.4781C197.887 45.5345 197.854 45.5857 197.811 45.6286C197.769 45.6715 197.718 45.7052 197.662 45.7277C197.606 45.7501 197.546 45.7608 197.486 45.7591V46.205H201.404V45.7591C201.072 45.7591 200.839 45.598 200.839 45.3007L200.826 35.2917Z" fill="#49585B"/>
<path fill-rule="evenodd" clip-rule="evenodd" d="M212.039 46.1804V45.7344C211.609 45.7344 211.388 45.5734 211.388 45.2761V33.8921C211.388 33.5948 211.609 33.4337 212.039 33.4337V32.9878H207.826V33.4461C208.268 33.4461 208.489 33.6072 208.489 33.9045V45.2885C208.489 45.5858 208.268 45.7468 207.826 45.7468V46.1928L212.039 46.1804Z" fill="#49585B"/>
<path fill-rule="evenodd" clip-rule="evenodd" d="M227.193 41.51L226.849 41.7206C226.902 41.8119 226.935 41.9131 226.947 42.0179C226.947 42.947 224.025 44.0247 221.888 44.0247C219.039 44.0247 216.57 42.3895 216.57 39.5157C216.57 36.6418 219.026 34.9943 221.888 34.9943C223.57 34.9943 226.186 35.849 226.333 36.6046C226.343 36.7118 226.343 36.8196 226.333 36.9267L226.591 37.1001L228.568 34.0652L228.188 33.7679C228.114 33.867 227.991 34.09 227.832 34.09C227.672 34.09 227.07 33.7679 226.026 33.4706C224.668 33.0578 223.257 32.845 221.839 32.8389C217.565 32.8389 213.733 35.1429 213.733 39.59C213.733 44.0371 217.565 46.3287 221.839 46.3287C225.118 46.3287 227.979 44.3468 228.335 44.3468H228.618L228.826 44.1486L227.193 41.51Z" fill="#49585B"/>
<path fill-rule="evenodd" clip-rule="evenodd" d="M236.674 36.3943L238.81 41.0644H234.291L236.674 36.3943ZM232.854 46.1804V45.7344C232.596 45.7344 232.363 45.5982 232.363 45.4495C232.403 45.184 232.491 44.928 232.621 44.6939L233.53 42.9225H239.67L240.64 44.7806C240.756 44.9762 240.824 45.1972 240.837 45.4247C240.837 45.6229 240.554 45.7344 240.432 45.7344V46.1804H244.902V45.7344C244.546 45.6336 244.243 45.3985 244.054 45.0779L238.786 34.8707C238.594 34.5949 238.472 34.2759 238.43 33.9416C238.43 33.5948 238.737 33.4957 238.958 33.4337V32.9878H234.672V33.4461C234.93 33.5081 235.237 33.6319 235.237 33.954C235.151 34.3379 234.997 34.703 234.782 35.0317L230.091 44.793C229.858 45.2637 229.625 45.6973 229.195 45.7468V46.1928L232.854 46.1804Z" fill="#49585B"/>
<path fill-rule="evenodd" clip-rule="evenodd" d="M258.742 46.7378V43.2198H258.288C258.288 43.6286 257.932 43.8763 257.416 43.8763H249.974V33.8921C249.974 33.5948 250.207 33.4337 250.686 33.4337V32.9878H246.326V33.4461C246.854 33.4461 247.088 33.6072 247.088 33.9045V45.2885C247.088 45.5858 246.854 45.7468 246.326 45.7468V46.1927H257.379C257.895 46.1927 258.251 46.1927 258.251 46.7502L258.742 46.7378Z" fill="#49585B"/>
<path fill-rule="evenodd" clip-rule="evenodd" d="M144.298 32.4546H143.844C143.844 32.8014 143.586 33.0492 142.874 33.0492H132.165V33.5075C132.225 33.5041 132.285 33.5132 132.342 33.5341C132.398 33.555 132.45 33.5873 132.494 33.629C132.537 33.6708 132.572 33.7211 132.596 33.7769C132.619 33.8327 132.632 33.8928 132.632 33.9535V45.3375C132.633 45.3992 132.622 45.4607 132.599 45.5179C132.576 45.5752 132.542 45.627 132.498 45.6701C132.454 45.7132 132.402 45.7466 132.345 45.7682C132.287 45.7899 132.226 45.7993 132.165 45.7958V46.2418H143.119C143.635 46.2418 143.991 46.2417 143.991 46.7992H144.458V43.2812H143.991C143.991 43.6899 143.635 43.9377 143.119 43.9377H135.542V40.4692H139.914C140.577 40.4692 140.995 40.6303 140.995 41.3735H141.449V37.4715H140.995C140.995 38.2147 140.577 38.3138 139.914 38.3138H135.542V35.2046H142.911C143.623 35.2046 143.881 35.4152 143.881 35.762H144.335L144.298 32.4546Z" fill="#49585B"/>
<path fill-rule="evenodd" clip-rule="evenodd" d="M174.386 32.4546H173.932C173.932 32.8014 173.674 33.0492 172.961 33.0492H162.253V33.5075C162.313 33.5041 162.373 33.5132 162.429 33.5341C162.486 33.555 162.538 33.5873 162.581 33.629C162.625 33.6708 162.66 33.7211 162.684 33.7769C162.707 33.8327 162.719 33.8928 162.719 33.9535V45.3375C162.721 45.3992 162.71 45.4607 162.687 45.5179C162.664 45.5752 162.63 45.627 162.586 45.6701C162.542 45.7132 162.49 45.7466 162.432 45.7682C162.375 45.7899 162.314 45.7993 162.253 45.7958V46.2418H173.219C173.723 46.2418 174.091 46.2417 174.091 46.7992H174.546V43.2812H174.091C174.091 43.6899 173.723 43.9377 173.219 43.9377H165.642V40.4692H170.002C170.677 40.4692 171.082 40.6303 171.082 41.3735H171.537V37.4715H171.082C171.082 38.2147 170.677 38.3138 170.002 38.3138H165.642V35.2046H173.011C173.723 35.2046 173.981 35.4152 173.981 35.762H174.386V32.4546Z" fill="#49585B"/>
</g>
</svg>
