<svg width="243" height="55" viewBox="0 0 243 55" fill="none" xmlns="http://www.w3.org/2000/svg">
<g opacity="0.4" clip-path="url(#clip0)">
<path d="M11.5645 25.5237C5.42354 25.5237 3.23203 21.3317 3.23203 17.405C3.23203 13.7012 4.68036 9.28643 11.5661 9.28643C17.3057 9.28643 19.3381 13.6612 19.3381 17.405C19.3381 21.152 17.3045 25.5237 11.5645 25.5237ZM11.6155 6.94172C7.80946 6.94172 4.47889 8.53036 2.99607 11.0203V7.57655H0.000244141L0.0464966 34.332H3.27946L3.23478 23.8303C4.5612 26.2511 7.77653 27.7962 11.5645 27.7962C19.723 27.7962 22.6189 22.16 22.6189 17.3332C22.6189 12.5391 19.7367 6.94172 11.6155 6.94172Z" fill="#49585B"/>
<path d="M49.9942 -0.000322342V11.6397H30.4251V-0.000322342H26.9589L26.9578 27.0898H30.4232L30.4251 14.1025H49.9942L49.9927 27.0898H53.4655L53.4675 -0.000322342H49.9942Z" fill="#49585B"/>
<path fill-rule="evenodd" clip-rule="evenodd" d="M61.033 26.9536H70.3082L70.309 12.0441H74.9922V7.46258H70.1216C69.975 5.66089 70.7288 5.13552 72.9787 5.13552C73.7258 5.13552 74.4737 5.32228 75.2266 5.39683V0.29072C73.8187 0.253447 72.4593 0.141235 71.0569 0.141235C67.312 0.141235 64.9676 0.366446 62.9568 1.98138C61.1737 3.40759 60.9429 5.54593 61.0346 7.46258H57.2427V12.0441H61.0346L61.033 26.9536Z" fill="#49585B"/>
<path fill-rule="evenodd" clip-rule="evenodd" d="M93.9039 17.1896C93.9039 19.251 93.4343 22.0316 89.9246 22.0316C86.4098 22.0316 85.9394 19.251 85.9394 17.1896C85.9394 15.1226 86.4098 12.382 89.9246 12.382C93.4343 12.382 93.9039 15.1226 93.9039 17.1896ZM103.178 17.1896C103.178 11.779 99.0492 6.9746 89.9246 6.9746C80.7936 6.9746 76.667 11.779 76.667 17.1896C76.667 22.5943 80.7921 27.4395 89.923 27.4395C99.0485 27.4395 103.178 22.5943 103.178 17.1896Z" fill="#49585B"/>
<path fill-rule="evenodd" clip-rule="evenodd" d="M107.198 26.9536H116.472L116.474 19.2505C116.474 15.0864 118.438 13.3585 122.096 13.3585C123.968 13.3585 124.807 13.5825 125.744 13.8439V7.27269C124.854 7.08749 123.968 6.9741 123.027 6.9741C119.662 6.9741 117.691 8.2524 116.191 10.5791H116.096V7.46259H107.2L107.198 26.9536Z" fill="#49585B"/>
<path fill-rule="evenodd" clip-rule="evenodd" d="M127.939 26.9536H137.213V16.3993C137.213 14.3696 138.008 12.9057 140.349 12.9057C143.161 12.9057 143.394 14.5579 143.394 16.3993V26.9536H152.668V16.3993C152.668 14.3696 153.462 12.9057 155.804 12.9057C158.616 12.9057 158.844 14.5579 158.844 16.3993V26.9536H168.119V13.5825C168.119 10.4284 166.012 6.9741 159.781 6.9741C153.742 6.9741 151.869 9.79082 151.492 10.0172C150.37 8.06289 147.56 6.9741 144.936 6.9741C141.567 6.9741 138.852 7.80158 136.978 10.0533H136.886V7.46259H127.939V26.9536Z" fill="#49585B"/>
<path fill-rule="evenodd" clip-rule="evenodd" d="M198.371 7.46308H189.1V17.7499C189.1 20.8663 186.99 21.5059 185.403 21.5059C182.687 21.5059 182.355 19.9302 182.355 17.678V7.46308H173.085V20.8322C173.085 25.296 177.065 27.4395 181.416 27.4395C185.116 27.4395 187.599 26.4252 189.336 24.4732H189.431L189.428 26.9541H198.371V7.46308Z" fill="#49585B"/>
<path fill-rule="evenodd" clip-rule="evenodd" d="M203.618 26.9536H212.892V0.14123H203.618V26.9536Z" fill="#49585B"/>
<path fill-rule="evenodd" clip-rule="evenodd" d="M241.872 14.5952C241.872 10.8431 241.97 6.97411 230.36 6.97411C224.595 6.97411 218.133 7.87417 217.85 13.3585H226.468C226.516 12.533 227.078 11.3689 229.936 11.3689C231.434 11.3689 232.977 11.8562 232.977 13.1706C232.977 14.41 231.718 14.7102 230.449 14.8981C225.723 15.6091 216.729 15.3839 216.729 21.5427C216.729 25.6365 220.614 27.439 225.293 27.439C228.295 27.439 231.153 26.9136 233.12 25.1107H233.212C233.165 25.6365 233.302 26.4247 233.537 26.9536H243C241.967 25.7095 241.872 24.0592 241.872 22.5942V14.5952ZM232.977 20.0046C232.835 22.0311 231.199 23.045 229.091 23.045C227.405 23.045 226.191 22.1449 226.191 21.2421C226.191 19.9301 227.265 19.5161 229.328 19.141C230.589 18.9143 231.852 18.653 232.977 18.2006V20.0046Z" fill="#49585B"/>
<path fill-rule="evenodd" clip-rule="evenodd" d="M241.293 40.7694C241.813 40.7694 242.228 41.1904 242.228 41.7044C242.228 42.2238 241.813 42.6421 241.293 42.6421H73.2112C72.6977 42.6421 72.2791 42.2238 72.2791 41.7044C72.2791 41.1904 72.6977 40.7694 73.2112 40.7694H241.293Z" fill="#49585B"/>
<path fill-rule="evenodd" clip-rule="evenodd" d="M241.293 45.6414C241.812 45.6414 242.228 45.8502 242.228 46.1076V54.5299C242.228 54.79 241.812 54.9995 241.293 54.9995C240.774 54.9995 240.356 54.79 240.356 54.5299V46.1076C240.356 45.8502 240.774 45.6414 241.293 45.6414Z" fill="#49585B"/>
<path fill-rule="evenodd" clip-rule="evenodd" d="M227.94 45.6415C228.456 45.6415 228.874 45.8028 228.874 46.0146V49.0071C228.874 49.2139 228.456 49.3838 227.94 49.3838C227.424 49.3838 227.006 49.2139 227.006 49.0071V46.0146C227.006 45.8028 227.424 45.6415 227.94 45.6415Z" fill="#49585B"/>
<path fill-rule="evenodd" clip-rule="evenodd" d="M214.586 45.6414C215.102 45.6414 215.523 45.8502 215.523 46.1076V54.5299C215.523 54.79 215.102 54.9995 214.586 54.9995C214.073 54.9995 213.655 54.79 213.655 54.5299V46.1076C213.655 45.8502 214.073 45.6414 214.586 45.6414Z" fill="#49585B"/>
<path fill-rule="evenodd" clip-rule="evenodd" d="M201.232 45.6415C201.749 45.6415 202.167 45.8028 202.167 46.0146V49.0071C202.167 49.2139 201.749 49.3838 201.232 49.3838C200.716 49.3838 200.299 49.2139 200.299 49.0071V46.0146C200.299 45.8028 200.716 45.6415 201.232 45.6415Z" fill="#49585B"/>
<path fill-rule="evenodd" clip-rule="evenodd" d="M187.88 45.6414C188.396 45.6414 188.816 45.8502 188.816 46.1076V54.5299C188.816 54.79 188.396 54.9995 187.88 54.9995C187.363 54.9995 186.942 54.79 186.942 54.5299V46.1076C186.942 45.8502 187.363 45.6414 187.88 45.6414Z" fill="#49585B"/>
<path fill-rule="evenodd" clip-rule="evenodd" d="M174.523 45.6415C175.042 45.6415 175.46 45.8028 175.46 46.0146V49.0071C175.46 49.2139 175.042 49.3838 174.523 49.3838C174.009 49.3838 173.592 49.2139 173.592 49.0071V46.0146C173.592 45.8028 174.009 45.6415 174.523 45.6415Z" fill="#49585B"/>
<path fill-rule="evenodd" clip-rule="evenodd" d="M161.172 45.6414C161.691 45.6414 162.11 45.8502 162.11 46.1076V54.5299C162.11 54.79 161.691 54.9995 161.172 54.9995C160.657 54.9995 160.234 54.79 160.234 54.5299V46.1076C160.234 45.8502 160.657 45.6414 161.172 45.6414Z" fill="#49585B"/>
<path fill-rule="evenodd" clip-rule="evenodd" d="M147.822 45.6415C148.335 45.6415 148.756 45.8028 148.756 46.0146V49.0071C148.756 49.2139 148.335 49.3838 147.822 49.3838C147.306 49.3838 146.883 49.2139 146.883 49.0071V46.0146C146.883 45.8028 147.306 45.6415 147.822 45.6415Z" fill="#49585B"/>
<path fill-rule="evenodd" clip-rule="evenodd" d="M134.466 45.6414C134.985 45.6414 135.402 45.8502 135.402 46.1076V54.5299C135.402 54.79 134.985 54.9995 134.466 54.9995C133.946 54.9995 133.532 54.79 133.532 54.5299V46.1076C133.532 45.8502 133.946 45.6414 134.466 45.6414Z" fill="#49585B"/>
<path fill-rule="evenodd" clip-rule="evenodd" d="M121.113 45.6415C121.631 45.6415 122.047 45.8028 122.047 46.0146V49.0071C122.047 49.2139 121.631 49.3838 121.113 49.3838C120.593 49.3838 120.178 49.2139 120.178 49.0071V46.0146C120.178 45.8028 120.593 45.6415 121.113 45.6415Z" fill="#49585B"/>
<path fill-rule="evenodd" clip-rule="evenodd" d="M107.76 45.6414C108.276 45.6414 108.693 45.8502 108.693 46.1076V54.5299C108.693 54.79 108.276 54.9995 107.76 54.9995C107.241 54.9995 106.828 54.79 106.828 54.5299V46.1076C106.828 45.8502 107.241 45.6414 107.76 45.6414Z" fill="#49585B"/>
<path fill-rule="evenodd" clip-rule="evenodd" d="M94.4023 45.6415C94.9216 45.6415 95.3418 45.8028 95.3418 46.0146V49.0071C95.3418 49.2139 94.9216 49.3838 94.4023 49.3838C93.8903 49.3838 93.4729 49.2139 93.4729 49.0071V46.0146C93.4729 45.8028 93.8903 45.6415 94.4023 45.6415Z" fill="#49585B"/>
<path fill-rule="evenodd" clip-rule="evenodd" d="M81.0516 45.6414C81.5714 45.6414 81.9904 45.8502 81.9904 46.1076V54.5299C81.9904 54.79 81.5714 54.9995 81.0516 54.9995C80.5382 54.9995 80.1191 54.79 80.1191 54.5299V46.1076C80.1191 45.8502 80.5382 45.6414 81.0516 45.6414Z" fill="#49585B"/>
<path fill-rule="evenodd" clip-rule="evenodd" d="M67.7 45.6415C68.2135 45.6415 68.634 45.8028 68.634 46.0146V49.0071C68.634 49.2139 68.2135 49.3838 67.7 49.3838C67.1802 49.3838 66.7612 49.2139 66.7612 49.0071V46.0146C66.7612 45.8028 67.1802 45.6415 67.7 45.6415Z" fill="#49585B"/>
<path fill-rule="evenodd" clip-rule="evenodd" d="M54.3495 45.6414C54.8614 45.6414 55.282 45.8502 55.282 46.1076V54.5299C55.282 54.79 54.8614 54.9995 54.3495 54.9995C53.8302 54.9995 53.4092 54.79 53.4092 54.5299V46.1076C53.4092 45.8502 53.8302 45.6414 54.3495 45.6414Z" fill="#49585B"/>
<path fill-rule="evenodd" clip-rule="evenodd" d="M40.9913 45.6415C41.5076 45.6415 41.9301 45.8028 41.9301 46.0146V49.0071C41.9301 49.2139 41.5076 49.3838 40.9913 49.3838C40.4775 49.3838 40.0588 49.2139 40.0588 49.0071V46.0146C40.0588 45.8028 40.4775 45.6415 40.9913 45.6415Z" fill="#49585B"/>
<path fill-rule="evenodd" clip-rule="evenodd" d="M27.6409 45.6414C28.1587 45.6414 28.5734 45.8502 28.5734 46.1076V54.5299C28.5734 54.79 28.1587 54.9995 27.6409 54.9995C27.1215 54.9995 26.7041 54.79 26.7041 54.5299V46.1076C26.7041 45.8502 27.1215 45.6414 27.6409 45.6414Z" fill="#49585B"/>
<path fill-rule="evenodd" clip-rule="evenodd" d="M14.286 45.6415C14.8018 45.6415 15.2216 45.8028 15.2216 46.0146V49.0071C15.2216 49.2139 14.8018 49.3838 14.286 49.3838C13.7694 49.3838 13.3503 49.2139 13.3503 49.0071V46.0146C13.3503 45.8028 13.7694 45.6415 14.286 45.6415Z" fill="#49585B"/>
<path fill-rule="evenodd" clip-rule="evenodd" d="M0.930928 45.6414C1.45029 45.6414 1.86538 45.8502 1.86538 46.1076V54.5299C1.86538 54.79 1.45029 54.9995 0.930928 54.9995C0.41784 54.9995 0 54.79 0 54.5299V46.1076C0 45.8502 0.41784 45.6414 0.930928 45.6414Z" fill="#49585B"/>
<path fill-rule="evenodd" clip-rule="evenodd" d="M241.297 40.7755C241.812 40.7755 242.23 41.1934 242.23 41.7105C242.23 42.23 241.812 42.6455 241.297 42.6455H0.936748C0.420524 42.6455 0.00268555 42.23 0.00268555 41.7105C0.00268555 41.1934 0.420524 40.7755 0.936748 40.7755H241.297Z" fill="#49585B"/>
<path d="M61.7515 35.7666H62.8283C63.27 35.7666 64.4691 35.6415 64.4691 33.8488C64.4691 32.6867 64.0367 31.9792 62.8397 31.9792H61.7515V35.7666ZM61.1021 31.4358H62.7762C64.2747 31.4358 65.1107 32.1852 65.1107 33.7594C65.1107 35.3904 64.3973 36.3101 62.7762 36.3101H61.1021V31.4358Z" fill="#49585B"/>
<path d="M67.6787 31.4358H71.0434V31.9792H68.3282V33.5326H70.8568V34.076H68.3282V35.7666H71.0645V36.3101H67.6787V31.4358Z" fill="#49585B"/>
<path d="M75.6204 33.6816C76.2292 33.6816 76.7462 33.5262 76.7462 32.8149C76.7462 32.3401 76.4863 31.9788 75.8803 31.9788H74.2678V33.6816H75.6204ZM73.6187 31.4353H75.9148C76.8289 31.4353 77.3929 31.934 77.3929 32.7105C77.3929 33.299 77.1342 33.7887 76.5475 33.9476V33.9676C77.1154 34.0696 77.2338 34.4851 77.2769 34.9685C77.3204 35.4436 77.2918 35.9753 77.5666 36.3096H76.8442C76.6592 36.1126 76.7638 35.5869 76.6654 35.1094C76.5961 34.6346 76.4796 34.2309 75.849 34.2309H74.2678V36.3096H73.6187V31.4353Z" fill="#49585B"/>
<path d="M80.082 31.4358H80.971L82.5068 35.5308L84.048 31.4358H84.9311V36.3101H84.3196V32.2539H84.3067L82.7874 36.3101H82.2351L80.7111 32.2539H80.6935V36.3101H80.082V31.4358Z" fill="#49585B"/>
<path d="M88.6268 34.2968H90.2778L89.4668 32.0235H89.4499L88.6268 34.2968ZM89.1117 31.4353H89.8274L91.73 36.3096H91.0139L90.4828 34.8461H88.4218L87.8762 36.3096H87.2043L89.1117 31.4353Z" fill="#49585B"/>
<path d="M94.6251 31.9788H93V31.4353H96.895V31.9788H95.2734V36.3096H94.6251V31.9788Z" fill="#49585B"/>
<path d="M101.267 35.8804C102.459 35.8804 102.953 34.8587 102.953 33.8735C102.953 32.8902 102.459 31.8662 101.267 31.8662C100.081 31.8662 99.5863 32.8902 99.5863 33.8735C99.5863 34.8587 100.081 35.8804 101.267 35.8804ZM101.267 31.3193C102.817 31.3193 103.602 32.5505 103.602 33.8735C103.602 35.1993 102.817 36.4297 101.267 36.4297C99.72 36.4297 98.9344 35.1993 98.9344 33.8735C98.9344 32.5505 99.72 31.3193 101.267 31.3193Z" fill="#49585B"/>
<path d="M106.17 31.4358H106.818V35.7666H109.397V36.3101H106.17V31.4358Z" fill="#49585B"/>
<path d="M113.797 35.8804C114.983 35.8804 115.483 34.8587 115.483 33.8735C115.483 32.8902 114.983 31.8662 113.797 31.8662C112.611 31.8662 112.112 32.8902 112.112 33.8735C112.112 34.8587 112.611 35.8804 113.797 35.8804ZM113.797 31.3193C115.347 31.3193 116.131 32.5505 116.131 33.8735C116.131 35.1993 115.347 36.4297 113.797 36.4297C112.245 36.4297 111.461 35.1993 111.461 33.8735C111.461 32.5505 112.245 31.3193 113.797 31.3193Z" fill="#49585B"/>
<path d="M122.341 35.7043C121.964 36.2187 121.346 36.4302 120.777 36.4302C119.323 36.4302 118.454 35.2413 118.454 33.9748C118.454 32.5506 119.233 31.3193 120.777 31.3193C121.84 31.3193 122.688 31.7941 122.87 32.9355H122.223C122.094 32.2006 121.5 31.8663 120.777 31.8663C119.595 31.8663 119.104 32.8903 119.104 33.936C119.104 34.9486 119.69 35.8805 120.777 35.8805C121.779 35.8805 122.379 35.1786 122.341 34.2914H120.784V33.7453H122.919V36.3105H122.509L122.341 35.7043Z" fill="#49585B"/>
<path d="M125.678 31.4363H126.322V36.3105H125.678V31.4363Z" fill="#49585B"/>
<path d="M132.615 32.9014C132.478 32.2176 131.926 31.8648 131.249 31.8648C130.091 31.8648 129.599 32.821 129.599 33.8419C129.599 34.9476 130.091 35.8794 131.258 35.8794C132.111 35.8794 132.604 35.2815 132.664 34.4724H133.313C133.189 35.6911 132.43 36.4287 131.203 36.4287C129.685 36.4287 128.948 35.3058 128.948 33.8839C128.948 32.4683 129.757 31.3183 131.258 31.3183C132.275 31.3183 133.111 31.8648 133.263 32.9014H132.615Z" fill="#49585B"/>
<path d="M136.727 34.2968H138.381L137.568 32.0235H137.556L136.727 34.2968ZM137.216 31.4353H137.927L139.837 36.3096H139.115L138.584 34.8461H136.524L135.978 36.3096H135.31L137.216 31.4353Z" fill="#49585B"/>
<path d="M142.087 31.4358H142.734V35.7666H145.315V36.3101H142.087V31.4358Z" fill="#49585B"/>
<path d="M154.141 32.8658C154.064 32.1674 153.605 31.8653 152.931 31.8653C152.387 31.8653 151.845 32.0627 151.845 32.6983C151.845 33.299 152.621 33.3884 153.405 33.565C154.183 33.7443 154.96 34.0162 154.96 34.9747C154.96 36.0051 153.942 36.4292 153.056 36.4292C151.963 36.4292 151.045 35.8979 151.045 34.7087H151.656C151.656 35.5276 152.34 35.8799 153.074 35.8799C153.664 35.8799 154.315 35.6975 154.315 34.9928C154.315 34.327 153.533 34.2073 152.757 34.0398C151.979 33.8667 151.194 33.6454 151.194 32.7497C151.194 31.7578 152.077 31.3188 152.96 31.3188C153.959 31.3188 154.715 31.7876 154.756 32.8658H154.141Z" fill="#49585B"/>
<path d="M157.52 31.4358H158.165V33.8669L160.635 31.4358H161.476L159.421 33.4043L161.561 36.3101H160.743L158.976 33.8488L158.165 34.6076V36.3101H157.52V31.4358Z" fill="#49585B"/>
<path d="M163.873 31.4363H164.521V36.3105H163.873V31.4363Z" fill="#49585B"/>
<path d="M167.379 31.4358H168.069L170.632 35.3904H170.65V31.4358H171.264V36.3101H170.548L168.004 32.3975H167.994V36.3101H167.379V31.4358Z" fill="#49585B"/>
<path d="M179.757 33.6816C180.359 33.6816 180.881 33.5262 180.881 32.8149C180.881 32.3401 180.622 31.9788 180.014 31.9788H178.408V33.6816H179.757ZM177.758 31.4353H180.049C180.962 31.4353 181.529 31.934 181.529 32.7105C181.529 33.299 181.272 33.7887 180.684 33.9476V33.9676C181.25 34.0696 181.366 34.4851 181.416 34.9685C181.458 35.4436 181.428 35.9753 181.703 36.3096H180.978C180.793 36.1126 180.894 35.5869 180.801 35.1094C180.729 34.6346 180.617 34.2309 179.989 34.2309H178.408V36.3096H177.758V31.4353Z" fill="#49585B"/>
<path d="M184.203 31.4358H187.569V31.9792H184.853V33.5326H187.384V34.076H184.853V35.7666H187.587V36.3101H184.203V31.4358Z" fill="#49585B"/>
<path d="M192.964 32.8658C192.887 32.1674 192.428 31.8653 191.758 31.8653C191.216 31.8653 190.667 32.0627 190.667 32.6983C190.667 33.299 191.445 33.3884 192.23 33.565C193.006 33.7443 193.781 34.0162 193.781 34.9747C193.781 36.0051 192.767 36.4292 191.881 36.4292C190.791 36.4292 189.867 35.8979 189.867 34.7087H190.481C190.481 35.5276 191.162 35.8799 191.902 35.8799C192.486 35.8799 193.137 35.6975 193.137 34.9928C193.137 34.327 192.359 34.2073 191.579 34.0398C190.8 33.8667 190.015 33.6454 190.015 32.7497C190.015 31.7578 190.899 31.3188 191.788 31.3188C192.779 31.3188 193.537 31.7876 193.58 32.8658H192.964Z" fill="#49585B"/>
<path d="M200.233 34.5475C200.233 35.7783 199.53 36.4292 198.314 36.4292C197.061 36.4292 196.312 35.8473 196.312 34.5475V31.4353H196.966V34.5475C196.966 35.4138 197.458 35.8799 198.314 35.8799C199.13 35.8799 199.582 35.4138 199.582 34.5475V31.4353H200.233V34.5475Z" fill="#49585B"/>
<path d="M205.043 33.6816C205.646 33.6816 206.165 33.5262 206.165 32.8149C206.165 32.3401 205.908 31.9788 205.3 31.9788H203.689V33.6816H205.043ZM203.044 31.4353H205.336C206.251 31.4353 206.815 31.934 206.815 32.7105C206.815 33.299 206.56 33.7887 205.972 33.9476V33.9676C206.535 34.0696 206.652 34.4851 206.699 34.9685C206.744 35.4436 206.715 35.9753 206.989 36.3096H206.263C206.078 36.1126 206.183 35.5869 206.088 35.1094C206.018 34.6346 205.902 34.2309 205.274 34.2309H203.689V36.3096H203.044V31.4353Z" fill="#49585B"/>
<path d="M209.496 31.4358H212.688V31.9792H210.14V33.5326H212.376V34.076H210.14V36.3101H209.496V31.4358Z" fill="#49585B"/>
<path d="M215.646 34.2968H217.295L216.484 32.0235H216.471L215.646 34.2968ZM216.132 31.4353H216.845L218.752 36.3096H218.03L217.499 34.8461H215.44L214.893 36.3096H214.228L216.132 31.4353Z" fill="#49585B"/>
<path d="M224.427 32.9014C224.29 32.2176 223.738 31.8648 223.061 31.8648C221.904 31.8648 221.414 32.821 221.414 33.8419C221.414 34.9476 221.904 35.8794 223.069 35.8794C223.926 35.8794 224.415 35.2815 224.475 34.4724H225.122C225.001 35.6911 224.242 36.4287 223.013 36.4287C221.503 36.4287 220.763 35.3058 220.763 33.8839C220.763 32.4683 221.569 31.3183 223.069 31.3183C224.088 31.3183 224.929 31.8648 225.078 32.9014H224.427Z" fill="#49585B"/>
<path d="M227.728 31.4363H228.378V36.3105H227.728V31.4363Z" fill="#49585B"/>
<path d="M231.237 31.4358H231.926L234.492 35.3904H234.501V31.4358H235.116V36.3101H234.409L231.864 32.3975H231.852V36.3101H231.237V31.4358Z" fill="#49585B"/>
<path d="M241.585 35.7043C241.213 36.2187 240.595 36.4302 240.022 36.4302C238.572 36.4302 237.7 35.2413 237.7 33.9748C237.7 32.5506 238.482 31.3193 240.022 31.3193C241.084 31.3193 241.935 31.7941 242.119 32.9355H241.472C241.341 32.2006 240.75 31.8663 240.022 31.8663C238.843 31.8663 238.351 32.8903 238.351 33.936C238.351 34.9486 238.942 35.8805 240.022 35.8805C241.027 35.8805 241.633 35.1786 241.585 34.2914H240.031V33.7453H242.168V36.3105H241.759L241.585 35.7043Z" fill="#49585B"/>
</g>
<defs>
<clipPath id="clip0">
<rect width="243" height="55" fill="white"/>
</clipPath>
</defs>
</svg>
