<svg width="256" height="68" viewBox="0 0 256 68" fill="none" xmlns="http://www.w3.org/2000/svg">
<path d="M141.597 11.8629C139.134 12.0572 136.838 12.9226 134.891 14.3842C134.326 14.8081 133.364 15.7221 132.878 16.2917C131.351 18.0977 130.362 20.2525 129.947 22.6943C129.814 23.4582 129.788 23.8909 129.792 25.0787C129.792 25.9574 129.81 26.2886 129.894 26.845C130.163 28.7039 130.856 30.5364 131.85 32.0377C132.37 32.8193 132.697 33.2211 133.359 33.9055C135.372 35.9676 137.787 37.1774 140.847 37.6543C141.27 37.7206 142.754 37.7294 157.591 37.7382L173.868 37.7515V36.1619V34.5722H166.385H158.902V30.5761V26.58L163.264 26.5712L167.621 26.558L167.63 25.0037C167.635 23.7806 167.626 23.4406 167.582 23.4052C167.542 23.3699 166.226 23.3611 163.211 23.3655L158.902 23.3787V19.3473V15.3203H166.783H174.663V13.7307V12.1411H165.193H155.724L155.737 23.3567L155.746 34.5767L148.594 34.559L141.443 34.5458L140.935 34.4486C138.833 34.0424 137.209 33.2432 135.867 31.9494C134.216 30.3598 133.214 28.2889 132.997 26.006C132.931 25.3128 132.971 23.9439 133.072 23.3346C133.39 21.4138 134.132 19.7845 135.319 18.3626C136.714 16.7024 138.666 15.5808 140.877 15.1702C141.884 14.9803 143.164 14.9803 144.246 15.1702C145.817 15.4395 146.921 15.9032 148.612 17.0071L149.61 17.6561L149.623 15.7707L149.632 13.8852L149.535 13.8146C149.367 13.6865 148.087 13.0419 147.627 12.852C146.669 12.4546 145.486 12.1278 144.489 11.9865C144.224 11.9468 143.946 11.9071 143.871 11.8938C143.707 11.8673 141.866 11.8408 141.597 11.8629Z" fill="#B6BCBD"/>
<path d="M240.507 11.8776C239.783 11.9571 239.642 11.9747 239.116 12.0807C235.245 12.8313 231.987 15.335 230.221 18.9204C229.541 20.3025 229.188 21.4506 228.932 23.1373C228.813 23.9189 228.821 26.1134 228.954 26.9391C229.333 29.403 230.216 31.4651 231.673 33.3152C232.119 33.8804 233.192 34.949 233.73 35.3685C234.949 36.309 236.317 37.0376 237.659 37.4659C238.458 37.7176 239.456 37.9295 240.154 37.9958C240.326 38.0134 240.511 38.0355 240.573 38.0443C240.75 38.0752 242.29 38.0708 242.626 38.0399C244.824 37.8412 246.89 37.1568 248.656 36.0441C249.283 35.6511 249.566 35.4436 250.276 34.8519C250.718 34.481 250.766 34.428 250.718 34.3573C250.585 34.1719 248.727 32.101 248.696 32.101C248.674 32.101 248.435 32.2908 248.157 32.5249C246.356 34.0526 244.162 34.8519 241.699 34.8784C239.575 34.9004 237.575 34.2425 235.849 32.9488C235.43 32.6352 234.6 31.8272 234.247 31.3945C233.126 30.0036 232.397 28.3168 232.115 26.449C232.031 25.9103 232 24.356 232.062 23.888C232.154 23.1682 232.203 22.9121 232.34 22.3778C233.337 18.4038 236.538 15.5513 240.529 15.0833C241.112 15.0171 242.264 15.0215 242.847 15.0965C244.564 15.3217 245.968 15.8781 247.641 16.9908C248.118 17.3043 248.546 17.5869 248.599 17.6134L248.696 17.6664V15.7677V13.8734L248.356 13.6747C246.82 12.7916 245.226 12.2397 243.42 11.9615C242.754 11.8599 241.107 11.8113 240.507 11.8776Z" fill="#B6BCBD"/>
<path d="M77.5628 12.1504C77.5495 12.2034 77.4833 12.6714 77.4259 13.135C77.4127 13.2543 77.395 13.4044 77.3862 13.4662C77.3729 13.528 77.3155 13.974 77.2581 14.4597C77.0639 16.0008 76.7902 18.1644 76.7681 18.3013C76.7593 18.3719 76.6798 18.9989 76.5915 19.6922C76.5077 20.3854 76.4282 21.0213 76.415 21.1052C76.4017 21.1891 76.3311 21.7454 76.256 22.3415C76.1854 22.9376 76.1148 23.4808 76.1059 23.5558C76.0927 23.6265 76.0132 24.2447 75.9293 24.9247C75.8455 25.6047 75.766 26.2184 75.7528 26.2935C75.7439 26.3641 75.6556 27.0618 75.5585 27.8389C75.4614 28.6161 75.3113 29.7995 75.223 30.4662C75.1391 31.133 74.9979 32.2457 74.914 32.9389C74.8257 33.6322 74.7462 34.2371 74.7374 34.2857C74.7286 34.3343 74.7197 34.4182 74.7197 34.4712C74.7153 34.5727 74.7065 34.5727 74.1812 34.5727C73.7706 34.5727 73.6117 34.5551 73.4925 34.4976C73.3026 34.4093 73.0731 34.1179 72.614 33.4026C72.4285 33.1112 72.2343 32.8021 72.1769 32.7182C72.093 32.5901 69.5325 28.5852 69.2942 28.2143C69.1176 27.9361 68.0934 26.1699 68.1022 26.161C68.111 26.1522 68.3627 26.0683 68.6673 25.9667C70.6671 25.3 72.4594 23.8914 73.2143 22.3857C73.828 21.1582 73.9913 19.4228 73.6337 17.9039C73.3115 16.5351 72.6713 15.4267 71.6339 14.4288C70.4243 13.2675 68.8439 12.5699 66.6807 12.2387C66.279 12.1813 65.4755 12.168 60.69 12.1548L55.1585 12.1371L55.1497 17.7493L55.1364 23.3571L46.4087 23.3704L37.6766 23.3792L37.6678 19.4714C37.6589 17.321 37.6589 15.5106 37.6678 15.44L37.681 15.3208H44.5237H51.3619V13.7312V12.1415H42.93H34.498V24.9467V37.7519H43.5657H52.6333L52.6378 36.2153C52.6422 35.3719 52.6245 34.6566 52.6069 34.6301C52.5804 34.586 51.0132 34.5727 45.1196 34.5639L37.6722 34.5506L37.6766 30.6649C37.6766 28.5278 37.6766 26.7351 37.6766 26.6776V26.5805H46.4175H55.1585V32.1662V37.7519H56.7478H58.337V32.1751V26.6026H60.3545C62.5221 26.6026 62.6722 26.6158 63.4139 26.8543C64.3807 27.1634 65.1047 27.7771 66.0053 29.0532C66.226 29.3667 67.5504 31.4156 68.7997 33.3805C70.4375 35.9504 70.6583 36.2639 71.1704 36.7319C71.7178 37.2397 72.2961 37.5356 73.0201 37.6857C73.3071 37.7475 73.7397 37.7652 75.3996 37.7828C76.5165 37.7917 77.4524 37.7873 77.4833 37.7652C77.5098 37.7475 77.5451 37.6195 77.5628 37.487C77.576 37.3545 77.5981 37.1956 77.6069 37.1338C77.6157 37.0719 77.6378 36.913 77.6511 36.7805C77.6643 36.648 77.6864 36.4891 77.6952 36.4273C77.704 36.3654 77.7217 36.2153 77.7349 36.0961C77.7526 35.9725 77.9424 34.4447 78.1587 32.6961C78.5649 29.4197 78.5825 29.2873 78.6223 28.9296C78.6355 28.8148 78.6576 28.6735 78.6664 28.6117C78.6752 28.5499 78.6973 28.3909 78.7106 28.2584C78.7238 28.126 78.7547 27.8743 78.7768 27.7065C78.7989 27.5343 78.8298 27.3179 78.8386 27.2208C78.8518 27.1236 79.1035 25.1145 79.3948 22.761C79.6862 20.4031 79.9378 18.4205 79.9599 18.3499C79.9908 18.2262 80.0482 18.3013 80.962 19.626C81.4962 20.4031 82.0436 21.1935 82.1805 21.3922C82.4409 21.7719 83.3945 23.154 85.2884 25.8961C85.9417 26.841 87.0542 28.4527 87.7606 29.4727L89.0408 31.3273L90.2372 31.3361L91.4335 31.3405L92.1575 30.2984C92.5504 29.72 93.3583 28.5543 93.9454 27.7065C97.1328 23.0878 98.1173 21.666 99.2386 20.0322C99.9184 19.0475 100.484 18.2351 100.497 18.2351C100.51 18.2351 100.563 18.5662 100.62 18.9769C100.678 19.3831 100.762 19.9836 100.806 20.3104C100.85 20.6371 100.943 21.2818 101.004 21.7454C101.066 22.2047 101.128 22.6418 101.137 22.7169C101.15 22.7875 101.199 23.1452 101.247 23.5117C101.3 23.8738 101.375 24.4434 101.424 24.7701C101.472 25.0969 101.547 25.6621 101.596 26.0286C101.645 26.3906 101.786 27.4151 101.909 28.3026C102.033 29.1901 102.192 30.3514 102.263 30.8857C102.338 31.42 102.426 32.0558 102.461 32.2987C102.497 32.5415 102.554 32.9566 102.589 33.226C102.625 33.4909 102.726 34.2283 102.814 34.8597C102.903 35.4912 103 36.2065 103.035 36.4493C103.066 36.6922 103.119 37.0852 103.15 37.3192L103.203 37.7519H104.832C105.724 37.7519 106.457 37.7431 106.457 37.7343C106.457 37.721 106.408 37.381 106.351 36.9704C106.289 36.5641 106.187 35.8488 106.125 35.3896C106.064 34.926 105.962 34.2106 105.905 33.8C105.847 33.3849 105.706 32.3914 105.596 31.5922C105.485 30.7886 105.344 29.7951 105.287 29.3844C105.229 28.9693 105.088 27.9758 104.978 27.1766C104.867 26.373 104.748 25.5208 104.713 25.2779C104.677 25.0351 104.567 24.2491 104.47 23.5338C104.373 22.8184 104.17 21.3878 104.028 20.3545C103.883 19.3213 103.755 18.4073 103.742 18.3234C103.733 18.2395 103.671 17.82 103.613 17.3961C103.552 16.9722 103.432 16.1067 103.344 15.4753C103.256 14.8439 103.128 13.9078 103.057 13.4C102.982 12.8878 102.916 12.3888 102.898 12.2828L102.876 12.0974H101.675L100.475 12.1018L99.7021 13.2366C98.8589 14.473 98.3954 15.153 97.4065 16.6013C94.2059 21.2906 92.8904 23.2202 91.4821 25.2867C91.0936 25.8652 90.6433 26.5231 90.4888 26.7483L90.2018 27.1545L88.7097 24.96C87.8886 23.7501 86.8467 22.2135 86.392 21.5467C85.9417 20.88 85.2928 19.9262 84.9529 19.4273C84.6129 18.9283 84.145 18.2439 83.9154 17.9039C83.1914 16.8397 82.7235 16.1509 81.324 14.0932L79.9643 12.0974H78.7724C77.8585 12.0974 77.576 12.1106 77.5628 12.1504ZM66.3937 15.4223C67.6078 15.6299 68.4245 15.9522 69.1485 16.5041C70.6583 17.6566 71.0997 19.913 70.1064 21.4099C69.4398 22.4078 68.1993 23.048 66.4158 23.313C65.9126 23.388 65.5196 23.3969 62.1027 23.3969L58.337 23.4013L58.3326 19.4935C58.3282 17.3431 58.3282 15.5371 58.3282 15.4753C58.3282 15.4135 58.3282 15.3517 58.3326 15.3384C58.337 15.3252 60.0588 15.3208 62.1689 15.334C65.374 15.3473 66.0626 15.3605 66.3937 15.4223Z" fill="#B6BCBD"/>
<path d="M117.206 12.2393C117.149 12.385 114.253 19.4146 109.33 31.3764C107.922 34.8029 106.757 37.6377 106.739 37.6775C106.713 37.7481 106.841 37.7526 108.448 37.7437L110.182 37.7305L110.739 36.4279C111.048 35.7126 111.644 34.3172 112.063 33.3237L112.831 31.5266L118.389 31.5354L123.952 31.5487L124.168 32.0785C124.901 33.8668 126.424 37.5141 126.45 37.545C126.468 37.5627 127.249 37.5715 128.185 37.5671L129.889 37.5539L129.461 36.4941C129.223 35.9113 128.808 34.8957 128.543 34.2422C128.274 33.5842 127.483 31.6502 126.786 29.937C126.084 28.2237 125.311 26.325 125.064 25.7201C124.817 25.1107 124.349 23.9715 124.027 23.1811C123.704 22.3907 122.98 20.6112 122.415 19.2292C121.14 16.1118 120.402 14.3058 119.899 13.0562L119.506 12.098H118.389H117.268L117.206 12.2393ZM118.676 18.3019C118.8 18.6154 119.736 20.9777 120.756 23.5432C121.775 26.1131 122.614 28.2458 122.623 28.2811C122.636 28.3429 122.208 28.3518 118.385 28.3606C114.151 28.3694 114.134 28.3694 114.156 28.2811C114.217 28.0383 118.403 17.6705 118.425 17.697C118.442 17.7146 118.553 17.984 118.676 18.3019Z" fill="#B6BCBD"/>
<path d="M9.51135 24.9463V37.7515L14.5131 37.747C18.398 37.747 19.6209 37.7338 20.0049 37.6852C22.9009 37.3408 25.5188 36.0735 27.5628 34.038C31.2181 30.3995 32.3306 25.0081 30.4279 20.1995C30.2071 19.6432 29.6465 18.5569 29.311 18.0359C27.6202 15.4219 25.0509 13.5011 22.0975 12.6489C21.8149 12.5694 21.3249 12.4502 21.0071 12.3883C19.8813 12.1587 19.6209 12.1499 14.3807 12.1455L9.51135 12.1411V24.9463ZM19.9299 15.4263C20.5788 15.5367 21.4706 15.7707 21.965 15.9606C24.8654 17.0998 26.9845 19.44 27.8277 22.4426C27.938 22.8356 28.0219 23.2728 28.1234 24.019C28.1543 24.253 28.1543 25.5954 28.1234 25.8956C27.9998 26.9951 27.757 27.918 27.3244 28.8806C26.1413 31.5343 23.7485 33.5611 20.9497 34.2676C19.8283 34.5546 19.6738 34.5634 15.992 34.5678L12.6457 34.5722V24.9419V15.3115L16.0583 15.3335C19.0249 15.3468 19.5282 15.36 19.9299 15.4263Z" fill="#B6BCBD"/>
<path d="M176.442 20.7395C176.455 30.1094 176.442 29.5088 176.698 30.5995C177.506 34.0613 180.207 36.8475 183.642 37.7527C184.551 37.9912 185.205 38.0706 186.229 38.0662C187.712 38.0574 189.076 37.7306 190.423 37.0639C191.46 36.5429 192.122 36.0704 192.952 35.2447C194.4 33.8096 195.244 32.2068 195.685 30.0475L195.787 29.5618L195.8 20.8499L195.809 12.1423H194.219H192.63L192.626 20.4745C192.626 25.0623 192.617 28.8995 192.604 29.0099C192.431 30.5465 191.791 31.8844 190.71 32.9618C189.769 33.9068 188.683 34.4896 187.333 34.7766C186.803 34.8914 185.483 34.8914 184.931 34.781C183.523 34.494 182.366 33.8626 181.391 32.8382C180.556 31.9683 180.013 30.9439 179.726 29.7075L179.633 29.2969L179.62 20.7174L179.607 12.1423H178.018H176.424L176.442 20.7395Z" fill="#B6BCBD"/>
<path d="M198.329 13.7307V15.3203H202.695H207.066V26.5359V37.7515H208.655H210.244V26.5359V15.3203H214.615H218.985V13.7307V12.1411H208.655H198.325L198.329 13.7307Z" fill="#B6BCBD"/>
<path d="M222.164 24.9463V37.7515H223.753H225.343V24.9463V12.1411H223.753H222.164V24.9463Z" fill="#B6BCBD"/>
<path d="M173.714 49.9434C172.963 50.0317 172.296 50.2702 171.926 50.5881C171.546 50.9149 171.303 51.4359 171.193 52.1556C171.14 52.531 171.127 52.9902 171.14 54.752C171.157 56.792 171.162 56.9112 171.255 57.238C171.449 57.9356 171.802 58.4037 172.358 58.6951C173.007 59.0351 173.581 59.119 175.325 59.1146C176.702 59.1146 177.077 59.0881 177.634 58.9424C178.627 58.6907 179.205 58.0902 179.417 57.0923C179.488 56.7567 179.497 56.4697 179.497 54.465C179.497 52.2793 179.492 52.1998 179.4 51.8289C179.117 50.7294 178.525 50.2172 177.307 50.0008C176.821 49.9169 174.305 49.8772 173.714 49.9434ZM177.011 51.3962C177.417 51.4933 177.665 51.7494 177.753 52.1601C177.784 52.3102 177.801 53.1094 177.801 54.5312C177.797 56.3681 177.788 56.7125 177.726 56.9156C177.598 57.3616 177.356 57.5647 176.866 57.6619C176.534 57.7237 173.811 57.6972 173.599 57.631C173.219 57.5029 172.981 57.2468 172.897 56.8626C172.835 56.5624 172.835 52.4427 172.897 52.1601C173.016 51.6434 173.294 51.4227 173.934 51.352C174.38 51.299 176.76 51.3343 177.011 51.3962Z" fill="#B6BCBD"/>
<path d="M216.5 49.9438C215.365 50.0498 214.571 50.4737 214.227 51.1625C213.9 51.8028 213.869 52.1472 213.882 54.7303C213.891 56.523 213.904 56.8984 213.966 57.1545C214.191 58.1038 214.787 58.6999 215.741 58.9428C216.35 59.0973 216.981 59.1371 218.42 59.1106C219.974 59.0841 220.35 59.0267 220.954 58.7308C221.559 58.4306 221.908 57.9934 222.124 57.2693C222.221 56.9513 222.226 56.8586 222.243 54.8186C222.261 52.5269 222.235 52.0986 222.049 51.5378C221.723 50.5532 221.016 50.094 219.586 49.9394C219.091 49.8864 217.096 49.8908 216.5 49.9438ZM219.471 51.3568C220.058 51.4363 220.327 51.6262 220.473 52.0589C220.544 52.2797 220.553 52.4872 220.553 54.4875C220.553 56.448 220.544 56.6997 220.473 56.9249C220.336 57.3708 220.076 57.5784 219.555 57.6667C219.197 57.7241 216.986 57.7241 216.588 57.6667C216.425 57.6402 216.209 57.5828 216.112 57.5342C215.886 57.4194 215.692 57.1456 215.635 56.8675C215.569 56.5628 215.564 52.4651 215.63 52.1737C215.75 51.6394 216.023 51.423 216.668 51.3524C217.1 51.3038 219.122 51.3082 219.471 51.3568Z" fill="#B6BCBD"/>
<path d="M139.478 54.532V59.0801L142.846 59.0712L146.21 59.058L146.223 58.3692C146.232 57.7731 146.223 57.6715 146.166 57.6494C146.126 57.6362 144.983 57.6274 143.628 57.6362L141.155 57.645V53.8123V49.984H140.317H139.478V54.532Z" fill="#B6BCBD"/>
<path d="M151.755 50.0811C151.707 50.2048 151.256 51.2645 149.963 54.3112C149.411 55.6094 148.771 57.1196 148.541 57.6671C148.312 58.2146 148.082 58.7489 148.038 58.8549C147.994 58.9609 147.954 59.0536 147.954 59.0668C147.954 59.0757 148.356 59.0801 148.85 59.0712L149.742 59.058L150.108 58.197C150.311 57.7245 150.488 57.3227 150.506 57.305C150.523 57.2874 151.583 57.2697 152.854 57.2697L155.172 57.2653L155.552 58.1307C155.759 58.6076 155.958 59.0183 155.993 59.0403C156.077 59.0933 157.71 59.0933 157.71 59.0403C157.71 59.0183 156.854 57.0357 155.808 54.6336C154.761 52.2359 153.874 50.2048 153.843 50.1253L153.781 49.984H152.788C151.795 49.984 151.79 49.984 151.755 50.0811ZM153.693 53.7814C154.161 54.8632 154.554 55.7816 154.563 55.8214C154.585 55.8964 154.483 55.9009 152.837 55.9009C151.777 55.9009 151.088 55.8832 151.088 55.8611C151.088 55.8346 151.446 54.978 151.888 53.9492C152.325 52.9203 152.713 52.0151 152.748 51.9312C152.784 51.8474 152.819 51.7899 152.828 51.7988C152.837 51.8076 153.225 52.6996 153.693 53.7814Z" fill="#B6BCBD"/>
<path d="M160.05 54.532V59.0801L163.154 59.0668C165.904 59.0536 166.284 59.0448 166.531 58.9785C167.41 58.7401 167.926 58.2279 168.16 57.358C168.257 56.9959 168.27 55.8699 168.178 55.5035C168.054 55.0001 167.745 54.5585 167.37 54.3466L167.206 54.2538L167.396 54.0861C167.621 53.8874 167.833 53.5032 167.908 53.1588C167.944 52.9954 167.957 52.6907 167.944 52.2536C167.922 51.6972 167.904 51.5471 167.807 51.2733C167.635 50.7788 167.361 50.4653 166.915 50.2489C166.376 49.9928 166.262 49.984 163.008 49.984H160.05V54.532ZM165.895 51.5074C166.213 51.6663 166.253 51.7679 166.253 52.4037C166.253 53.0484 166.204 53.2294 165.988 53.4237C165.719 53.6577 165.652 53.6622 163.617 53.6798L161.728 53.6975V52.545V51.3925L163.728 51.4058C165.622 51.419 165.732 51.4235 165.895 51.5074ZM166.072 55.2385C166.195 55.3003 166.332 55.4019 166.381 55.4681C166.509 55.6448 166.575 56.0377 166.562 56.5411C166.544 57.2035 166.421 57.4331 165.992 57.5567C165.807 57.6141 165.41 57.6229 163.759 57.6229L161.75 57.6274L161.737 56.3645L161.728 55.1016L163.789 55.1149L165.856 55.1281L166.072 55.2385Z" fill="#B6BCBD"/>
<path d="M182.565 54.531V59.0791L183.395 59.0702L184.22 59.057L184.233 57.3438L184.242 55.6349H185.955C186.895 55.6349 187.814 55.657 187.995 55.6791C188.458 55.7409 188.692 55.8689 188.833 56.1427C188.944 56.3591 188.944 56.3635 188.957 57.7235L188.97 59.0835L189.796 59.0702L190.621 59.057V57.5115V55.9661L190.493 55.6879C190.401 55.4892 190.286 55.3391 190.105 55.1713L189.844 54.9373L189.999 54.8445C190.339 54.6326 190.608 54.1999 190.718 53.6744C190.82 53.1931 190.807 52.1731 190.696 51.7404C190.423 50.716 189.831 50.2347 188.613 50.0492C188.282 49.9962 187.611 49.983 185.381 49.983H182.565V54.531ZM188.321 51.4401C188.661 51.4931 188.878 51.6123 188.988 51.7978C189.063 51.9258 189.081 52.045 189.089 52.5749C189.112 53.3697 189.059 53.6391 188.842 53.8643C188.538 54.1822 188.463 54.1954 186.22 54.2131L184.242 54.2263V52.8134V51.396H186.154C187.2 51.396 188.176 51.4136 188.321 51.4401Z" fill="#B6BCBD"/>
<path d="M196.855 50.0144C196.842 50.0365 196.263 51.3921 195.566 53.0303C194.868 54.6684 194.012 56.682 193.663 57.5077C193.314 58.329 193.027 59.0178 193.027 59.0355C193.027 59.0531 193.429 59.0664 193.919 59.0619L194.806 59.0575L195.186 58.1612L195.566 57.2648L197.892 57.256L200.219 57.2471L200.55 57.9978C200.731 58.4084 200.912 58.8191 200.947 58.9074L201.013 59.0708L201.843 59.0752C202.298 59.0752 202.695 59.0619 202.722 59.0443C202.775 59.0134 202.735 58.9206 201.64 56.4082C201.428 55.9225 200.709 54.2799 200.047 52.7521L198.841 49.9835H197.857C197.314 49.9835 196.864 49.9968 196.855 50.0144ZM198.4 52.9552C198.674 53.591 199.067 54.5051 199.274 54.9864C199.486 55.4721 199.649 55.8739 199.636 55.8827C199.627 55.8916 198.833 55.896 197.87 55.8916L196.118 55.8783L196.992 53.8383C197.469 52.7123 197.87 51.7939 197.883 51.7939C197.897 51.7939 198.126 52.3149 198.4 52.9552Z" fill="#B6BCBD"/>
<path d="M203.565 50.0149C203.534 50.0723 203.526 51.238 203.556 51.3219C203.587 51.3925 203.707 51.397 205.185 51.397H206.779V55.2253V59.058L207.631 59.0712L208.479 59.0801V55.2385V51.397H210.09H211.701V50.6905V49.984H207.644C205.411 49.984 203.574 49.9972 203.565 50.0149Z" fill="#B6BCBD"/>
<path d="M225.312 54.5193L225.32 59.0585L226.173 59.0629L227.02 59.0718V54.5281V49.9845H226.159H225.303L225.312 54.5193Z" fill="#B6BCBD"/>
<path d="M230.464 54.5276V59.0801H231.302H232.141V57.358V55.6315L233.942 55.6403C234.931 55.6403 235.858 55.6624 236.004 55.6845C236.357 55.7419 236.618 55.9009 236.746 56.1349C236.838 56.3115 236.843 56.3777 236.865 57.6892L236.887 59.058H237.726H238.564V57.6009C238.564 56.179 238.56 56.1349 238.458 55.8346C238.37 55.5741 238.308 55.4814 238.052 55.2297L237.752 54.9338L237.902 54.8411C238.229 54.638 238.494 54.2185 238.613 53.7063C238.719 53.2515 238.706 52.1829 238.591 51.737C238.405 51.0305 238.057 50.5845 237.47 50.3151C236.799 50.0105 236.865 50.0149 233.501 49.9972L230.464 49.9796V54.5276ZM236.22 51.4411C236.595 51.5029 236.781 51.6089 236.9 51.8385C236.988 52.0151 236.997 52.099 236.997 52.6422C236.997 53.4193 236.949 53.6489 236.741 53.8653C236.437 54.1832 236.361 54.1964 234.119 54.2141L232.141 54.2273V52.8144V51.397H234.053C235.099 51.397 236.075 51.4146 236.22 51.4411Z" fill="#B6BCBD"/>
<path d="M241.522 50.037C241.509 50.0679 241.505 52.1123 241.509 54.5762L241.522 59.058L245.001 59.0712L248.475 59.0801V58.378V57.6715L248.334 57.645C248.255 57.6318 247.071 57.6229 245.703 57.6318L243.222 57.645L243.231 56.3733L243.244 55.1016H245.751H248.255V54.4216V53.7372H245.738H243.222V52.5671V51.397H245.849H248.475V50.6905V49.984H245.01C242.277 49.984 241.535 49.9972 241.522 50.037Z" fill="#B6BCBD"/>
<path d="M9.55566 54.7739V55.5908H69.6609H129.766V54.7739V53.9571H69.6609H9.55566V54.7739Z" fill="#B6BCBD"/>
</svg>
