<svg width="19" height="19" viewBox="0 0 19 19" fill="none" xmlns="http://www.w3.org/2000/svg">
<path d="M12.0271 4.67676H6.97309C5.70739 4.67676 4.67701 5.70715 4.67701 6.97284V12.0268C4.67701 13.2925 5.70739 14.3229 6.97309 14.3229H12.0271C13.2928 14.3229 14.3232 13.2925 14.3232 12.0268V6.97284C14.3232 5.70715 13.2928 4.67676 12.0271 4.67676ZM9.50009 12.5033C7.84416 12.5033 6.49662 11.1558 6.49662 9.49984C6.49662 7.84392 7.84416 6.49638 9.50009 6.49638C11.156 6.49638 12.5035 7.84392 12.5035 9.49984C12.5035 11.1558 11.156 12.5033 9.50009 12.5033ZM12.5854 7.11023C12.1981 7.11023 11.8839 6.796 11.8839 6.40796C11.8839 6.02065 12.1981 5.70642 12.5854 5.70642C12.9734 5.70642 13.2877 6.02065 13.2877 6.40796C13.2877 6.796 12.9734 7.11023 12.5854 7.11023ZM9.50009 7.51946C8.40832 7.51946 7.5197 8.40807 7.5197 9.49984C7.5197 10.5916 8.40832 11.4802 9.50009 11.4802C10.5919 11.4802 11.4805 10.5916 11.4805 9.49984C11.4805 8.40807 10.5919 7.51946 9.50009 7.51946ZM9.50009 0.145996C4.33428 0.145996 0.14624 4.33403 0.14624 9.49984C0.14624 14.6656 4.33428 18.8537 9.50009 18.8537C14.6659 18.8537 18.8539 14.6656 18.8539 9.49984C18.8539 4.33403 14.6659 0.145996 9.50009 0.145996ZM15.3462 12.0268C15.3462 13.8567 13.8569 15.346 12.0271 15.346H6.97309C5.14324 15.346 3.65393 13.8567 3.65393 12.0268V6.97284C3.65393 5.143 5.14324 3.65369 6.97309 3.65369H12.0271C13.8569 3.65369 15.3462 5.143 15.3462 6.97284V12.0268Z" fill="#6D797C"/>
</svg>
