<svg width="19" height="19" viewBox="0 0 19 19" fill="none" xmlns="http://www.w3.org/2000/svg">
<path d="M9.49992 5.75016C9.00547 5.75016 8.52212 5.89679 8.11099 6.17149C7.69987 6.44619 7.37944 6.83664 7.19022 7.29345C7.001 7.75027 6.95149 8.25294 7.04796 8.73789C7.14442 9.22284 7.38252 9.6683 7.73215 10.0179C8.08178 10.3676 8.52724 10.6057 9.01219 10.7021C9.49715 10.7986 9.99981 10.7491 10.4566 10.5599C10.9134 10.3706 11.3039 10.0502 11.5786 9.63909C11.8533 9.22797 11.9999 8.74462 11.9999 8.25016C11.9999 7.58712 11.7365 6.95124 11.2677 6.4824C10.7988 6.01355 10.163 5.75016 9.49992 5.75016ZM9.49992 9.91683C9.17029 9.91683 8.84805 9.81908 8.57397 9.63595C8.29989 9.45281 8.08627 9.19251 7.96012 8.88797C7.83398 8.58342 7.80097 8.24831 7.86528 7.92501C7.92959 7.60171 8.08832 7.30474 8.32141 7.07165C8.5545 6.83856 8.85147 6.67983 9.17477 6.61552C9.49807 6.55121 9.83318 6.58422 10.1377 6.71036C10.4423 6.83651 10.7026 7.05013 10.8857 7.32421C11.0688 7.59829 11.1666 7.92053 11.1666 8.25016C11.1666 8.69219 10.991 9.11611 10.6784 9.42867C10.3659 9.74123 9.94195 9.91683 9.49992 9.91683ZM9.49992 0.333496C7.68693 0.333496 5.91464 0.871112 4.40719 1.87836C2.89974 2.8856 1.72483 4.31724 1.03103 5.99223C0.337224 7.66722 0.155693 9.51033 0.509391 11.2885C0.863089 13.0666 1.73613 14.7 3.01811 15.982C4.30009 17.264 5.93343 18.137 7.71159 18.4907C9.48975 18.8444 11.3329 18.6629 13.0079 17.9691C14.6828 17.2753 16.1145 16.1003 17.1217 14.5929C18.129 13.0854 18.6666 11.3132 18.6666 9.50016C18.6666 7.06901 17.7008 4.73743 15.9817 3.01835C14.2626 1.29927 11.9311 0.333496 9.49992 0.333496ZM9.75825 15.2418C9.68469 15.3 9.59368 15.3316 9.49992 15.3316C9.40616 15.3316 9.31515 15.3 9.24159 15.2418C9.08325 15.1002 4.91659 11.7418 4.91659 8.25016C4.91659 7.03459 5.39947 5.8688 6.25901 5.00926C7.11856 4.14971 8.28435 3.66683 9.49992 3.66683C10.7155 3.66683 11.8813 4.14971 12.7408 5.00926C13.6004 5.8688 14.0833 7.03459 14.0833 8.25016C14.0833 11.7418 9.93742 15.1002 9.75825 15.2418Z" fill="#49585B"/>
</svg>
