<svg width="60" height="92" viewBox="0 0 60 92" fill="none" xmlns="http://www.w3.org/2000/svg">
<path d="M30.0072 3.4164e-06C26.0673 -0.00187144 22.1656 0.767935 18.525 2.26544C14.8845 3.76295 11.5764 5.95882 8.78977 8.72759C6.00316 11.4964 3.79262 14.7838 2.28444 18.402C0.776262 22.0203 -4.5142e-07 25.8985 0 29.8151C0 50.3388 27.1357 67.6513 30.0072 92C32.8787 67.6513 60 50.3388 60 29.8151C60 25.8997 59.2242 22.0227 57.7169 18.4053C56.2097 14.788 54.0004 11.5012 51.2153 8.73264C45.5906 3.14123 37.9618 3.4164e-06 30.0072 3.4164e-06ZM30.0072 43.8591C27.217 43.8563 24.4903 43.0314 22.1716 41.4887C19.8528 39.946 18.0461 37.7548 16.9797 35.1917C15.9133 32.6287 15.635 29.809 16.18 27.0888C16.725 24.3686 18.0689 21.87 20.0418 19.9088C22.0148 17.9476 24.5282 16.6116 27.2646 16.0699C30.001 15.5281 32.8376 15.8047 35.4159 16.8648C37.9942 17.9249 40.1985 19.7209 41.7504 22.0259C43.3023 24.3309 44.1321 27.0415 44.135 29.8151C44.1368 31.6599 43.7727 33.487 43.0634 35.1917C42.3541 36.8965 41.3135 38.4454 40.0012 39.7499C38.689 41.0544 37.1308 42.0888 35.4159 42.7939C33.701 43.499 31.863 43.861 30.0072 43.8591Z" fill="#91B086"/>
<path style="mix-blend-mode:multiply" opacity="0.4" d="M29.9641 0V15.7996C33.7072 15.7996 37.297 17.2777 39.9438 19.9088C42.5906 22.5399 44.0775 26.1084 44.0775 29.8294C44.0775 33.5503 42.5906 37.1188 39.9438 39.7499C37.297 42.381 33.7072 43.8591 29.9641 43.8591V91.9001C32.8356 67.637 59.9569 50.3245 59.9569 29.8294C59.9588 25.9128 59.1844 22.0342 57.678 18.4152C56.1716 14.7963 53.9626 11.5078 51.1773 8.73768C48.392 5.96758 45.085 3.77014 41.4452 2.2709C37.8054 0.771662 33.904 -4.48745e-07 29.9641 0V0Z" fill="url(#paint0_linear)"/>
<path d="M30.0071 6.39404C25.3479 6.39687 20.7941 7.77288 16.9214 10.3481C13.0488 12.9234 10.0312 16.5822 8.25016 20.8621C6.46911 25.142 6.00458 29.8507 6.91529 34.393C7.826 38.9353 10.0711 43.1072 13.3667 46.3813C16.6622 49.6554 20.8604 51.8846 25.4303 52.7871C30.0002 53.6897 34.7368 53.225 39.0411 51.4519C43.3454 49.6788 47.0242 46.6769 49.6125 42.8256C52.2007 38.9744 53.5821 34.4467 53.5821 29.8151C53.5783 23.6021 51.0929 17.6449 46.6721 13.253C42.2514 8.86115 36.2571 6.39404 30.0071 6.39404ZM30.0071 43.8591C27.217 43.8563 24.4903 43.0314 22.1715 41.4887C19.8528 39.9461 18.0461 37.7548 16.9796 35.1917C15.9132 32.6287 15.6349 29.809 16.18 27.0888C16.725 24.3686 18.0689 21.87 20.0418 19.9088C22.0147 17.9476 24.5282 16.6116 27.2646 16.0698C30.001 15.5281 32.8375 15.8047 35.4158 16.8648C37.9941 17.9249 40.1985 19.7209 41.7504 22.0259C43.3023 24.3309 44.1321 27.0415 44.1349 29.8151C44.1368 31.6599 43.7727 33.487 43.0633 35.1917C42.354 36.8965 41.3135 38.4454 40.0012 39.7499C38.6889 41.0544 37.1307 42.0888 35.4158 42.7939C33.7009 43.499 31.8629 43.861 30.0071 43.8591Z" fill="#91B086"/>
<path style="mix-blend-mode:multiply" opacity="0.4" d="M30.0071 6.39404C25.3479 6.39687 20.7941 7.77288 16.9214 10.3481C13.0488 12.9234 10.0312 16.5822 8.25016 20.8621C6.46911 25.142 6.00458 29.8507 6.91529 34.393C7.826 38.9353 10.0711 43.1072 13.3667 46.3813C16.6622 49.6554 20.8604 51.8846 25.4303 52.7871C30.0002 53.6897 34.7368 53.225 39.0411 51.4519C43.3454 49.6788 47.0242 46.6769 49.6125 42.8256C52.2007 38.9744 53.5821 34.4467 53.5821 29.8151C53.5783 23.6021 51.0929 17.6449 46.6721 13.253C42.2514 8.86115 36.2571 6.39404 30.0071 6.39404ZM30.0071 43.8591C27.217 43.8563 24.4903 43.0314 22.1715 41.4887C19.8528 39.9461 18.0461 37.7548 16.9796 35.1917C15.9132 32.6287 15.6349 29.809 16.18 27.0888C16.725 24.3686 18.0689 21.87 20.0418 19.9088C22.0147 17.9476 24.5282 16.6116 27.2646 16.0698C30.001 15.5281 32.8375 15.8047 35.4158 16.8648C37.9941 17.9249 40.1985 19.7209 41.7504 22.0259C43.3023 24.3309 44.1321 27.0415 44.1349 29.8151C44.1368 31.6599 43.7727 33.487 43.0633 35.1917C42.354 36.8965 41.3135 38.4454 40.0012 39.7499C38.6889 41.0544 37.1307 42.0888 35.4158 42.7939C33.7009 43.499 31.8629 43.861 30.0071 43.8591Z" fill="url(#paint1_linear)"/>
<defs>
<linearGradient id="paint0_linear" x1="44.9533" y1="91.9001" x2="44.9533" y2="0.0142726" gradientUnits="userSpaceOnUse">
<stop stop-color="#49585B" stop-opacity="0.42"/>
<stop offset="1" stop-color="white"/>
</linearGradient>
<linearGradient id="paint1_linear" x1="604.902" y1="319.299" x2="1371.29" y2="1654.5" gradientUnits="userSpaceOnUse">
<stop stop-color="#49585B" stop-opacity="0.2"/>
<stop offset="1" stop-color="white"/>
</linearGradient>
</defs>
</svg>
