<svg width="19" height="19" viewBox="0 0 19 19" fill="none" xmlns="http://www.w3.org/2000/svg">
<path d="M9.50016 0.333496C4.44831 0.333496 0.333496 4.44831 0.333496 9.50016C0.333496 14.552 4.44831 18.6668 9.50016 18.6668C14.552 18.6668 18.6668 14.552 18.6668 9.50016C18.6668 4.44831 14.552 0.333496 9.50016 0.333496ZM12.5557 9.80572C12.1891 10.315 11.7409 10.7835 11.252 11.2724C10.7631 11.7613 10.2946 12.2298 9.78535 12.5761C8.09461 13.7779 6.44461 14.165 5.73164 13.452L5.07979 12.8002C4.91683 12.6168 5.16127 12.1076 5.62979 11.6391C6.09831 11.1705 6.62794 10.9261 6.7909 11.0891L7.38164 11.6798L7.3409 11.6391C7.74831 12.0465 8.54276 11.9242 9.39831 11.4353C9.76498 11.2113 10.1316 10.8853 10.4779 10.5391C10.8242 10.1928 11.1298 9.86683 11.3539 9.50016C11.8835 8.62424 12.0057 7.80942 11.5983 7.40202L11.6391 7.44276L11.0483 6.85201C10.8853 6.68905 11.1298 6.15942 11.5983 5.6909C12.0668 5.22238 12.5965 4.97794 12.7594 5.1409L13.4113 5.79276C14.1446 6.48535 13.7372 8.11498 12.5557 9.80572Z" fill="#49585B"/>
</svg>
