<svg width="30" height="30" viewBox="0 0 30 30" fill="none" xmlns="http://www.w3.org/2000/svg">
<g clip-path="url(#clip0)">
<path d="M15 30.0001C23.2843 30.0001 30.0001 23.2843 30.0001 15C30.0001 6.71574 23.2843 0 15 0C6.71574 0 0 6.71574 0 15C0 23.2843 6.71574 30.0001 15 30.0001Z" fill="#EFEFEF"/>
<path d="M12.7061 9.07845C13.9595 9.07845 14.9757 8.06233 14.9757 6.80888C14.9757 5.55543 13.9595 4.53931 12.7061 4.53931C11.4526 4.53931 10.4365 5.55543 10.4365 6.80888C10.4365 8.06233 11.4526 9.07845 12.7061 9.07845Z" fill="#B6E2EA"/>
<path d="M10.834 13.7841L9.97566 16.1804C9.97566 16.1804 9.72911 16.5202 9.91648 17.5444C10.2121 19.1591 10.3236 19.8398 10.7524 20.5482C11.8343 22.3353 13.0659 23.6605 13.0659 23.6605L12.7099 18.3353C12.7099 18.3353 11.9179 16.0485 12.1291 15.3711C12.6419 13.7278 11.0032 13.4064 11.0032 13.4064L10.834 13.7841Z" fill="#FBC096"/>
<path d="M10.3857 15.0236L10.9011 13.4401C10.9011 13.4401 11.2683 13.6707 11.2978 13.941C11.3303 14.2389 10.8258 15.0186 10.3857 15.0236Z" fill="#FDD7B3"/>
<path d="M21.4195 17.0175C21.4319 17.7347 20.9293 20.0135 20.2113 20.0258C19.4941 20.0382 18.9027 19.4668 18.8899 18.7494L18.7538 13.2248C18.7412 12.5073 19.069 11.9375 19.7867 11.9256C20.5039 11.913 20.7753 12.3164 20.9212 13.2025L21.4195 17.0175Z" fill="#FBC096"/>
<path d="M19.0495 16.8592L19.2228 12.082C18.8747 12.3269 18.7465 12.6941 18.7538 13.1036L18.7197 17.5877C18.7789 17.4445 19.0445 17.024 19.0495 16.8592Z" fill="#EDAC80"/>
<path d="M11.5757 16.7581V19.5916C11.6711 22.9673 13.8397 25.2029 16.5437 25.1557C19.2479 25.1093 21.4831 22.4971 21.4831 18.8862L21.4165 16.93L11.5757 16.7581Z" fill="#FBC096"/>
<path d="M19.1431 20.0878C19.1561 20.8045 18.5841 21.3961 17.8667 21.409C17.1493 21.4217 16.5574 20.85 16.5453 20.1321L16.4084 12.2741C16.3961 11.5562 16.9676 10.9648 17.685 10.9522C18.4022 10.9395 18.9942 11.511 19.0064 12.2289L19.1431 20.0878Z" fill="#FBC096"/>
<path d="M16.4742 16.2947L16.9718 11.1808C16.6793 11.4238 16.4008 11.7831 16.4081 12.1929L16.3745 16.7578C16.4337 16.6145 16.4697 16.4591 16.4742 16.2947Z" fill="#EDAC80"/>
<path d="M16.6626 19.0627C16.7824 19.7924 16.2109 20.3836 15.4935 20.3964C14.7758 20.4085 14.1839 19.8374 14.1721 19.1198L14.0359 11.2617C14.0228 10.5442 14.5944 9.95212 15.3121 9.94003C16.0298 9.92724 16.6221 10.499 16.5262 11.2041" fill="#FBC096"/>
<path d="M14.1017 15.2823L14.6386 10.1423C14.3203 10.3387 14.0309 10.77 14.0384 11.1807L14.0015 15.7454C14.0614 15.6026 14.0974 15.4469 14.1017 15.2823Z" fill="#EDAC80"/>
<path d="M14.1994 18.4665C14.2117 19.1842 13.6404 19.7758 12.9227 19.7882C12.2055 19.801 11.6134 19.229 11.6051 18.8251L11.4486 7.00373C11.432 5.97269 12.0035 5.38033 12.7214 5.36824C13.4389 5.35589 14.0303 5.92743 14.0428 6.64513L14.1994 18.4665Z" fill="#FBC096"/>
<path d="M13.6136 7.07289L13.6016 6.43267C13.5933 5.97836 13.1911 5.61673 12.7032 5.62477C12.2153 5.63236 11.8266 6.00704 11.8351 6.46179L11.8467 7.1015C11.8467 7.1015 12.0994 7.25146 12.6864 7.23652C13.4152 7.21785 13.4337 7.15442 13.6136 7.07289Z" fill="#FDD7B3"/>
<path d="M13.8114 12.548C13.8126 12.6001 13.7716 12.642 13.7195 12.6434L12.0847 12.6716C12.0326 12.6723 11.9898 12.6313 11.9893 12.5793C11.9886 12.5274 12.0295 12.4847 12.0814 12.484L13.7164 12.4561C13.7681 12.4551 13.8109 12.4961 13.8114 12.548Z" fill="#FDD7B3"/>
<path d="M13.3956 13.0196C13.396 13.0653 13.3603 13.103 13.3141 13.1037L12.5057 13.1177C12.46 13.1186 12.4221 13.0819 12.4214 13.0366C12.4205 12.9902 12.4574 12.953 12.5026 12.9516L13.3108 12.9374C13.3572 12.9369 13.3952 12.9734 13.3956 13.0196Z" fill="#FDD7B3"/>
<path d="M11.5755 13.6428L11.6709 19.5481L11.2597 17.1985C11.2597 17.1985 11.0927 16.4041 11.2271 15.8369C11.3311 15.3984 11.5755 13.6428 11.5755 13.6428Z" fill="#EDAC80"/>
<path d="M10.4757 16.5211C10.4766 16.5668 10.4402 16.6044 10.3942 16.6051L9.97521 16.6193C9.92926 16.62 9.89159 16.5833 9.89064 16.5381C9.88969 16.4919 9.92666 16.4545 9.97211 16.4531L10.3914 16.4391C10.4373 16.4384 10.4755 16.4749 10.4757 16.5211Z" fill="#FDD7B3"/>
<path d="M10.2809 16.8402C10.2822 16.8856 10.2459 16.9235 10.1997 16.9242L9.97521 16.9382C9.92926 16.9392 9.89159 16.9022 9.89064 16.8572C9.88969 16.8108 9.92666 16.7736 9.97211 16.7724L10.1966 16.7577C10.2425 16.7578 10.2807 16.7943 10.2809 16.8402Z" fill="#FDD7B3"/>
<path d="M13.6371 16.697C13.7201 16.9881 13.5831 17.2827 13.2935 17.3877C13.118 17.4512 13.1935 17.7332 13.3714 17.669C13.8084 17.5108 14.0471 17.0717 13.9185 16.6195C13.8672 16.4388 13.5853 16.5156 13.6371 16.697Z" fill="#F5B88E"/>
<path d="M16.1903 16.3048C16.3649 16.7951 16.1505 17.2771 15.6752 17.4848C15.503 17.5601 15.6515 17.8115 15.8223 17.7368C16.409 17.4803 16.6856 16.8285 16.4715 16.2269C16.4092 16.0509 16.1271 16.127 16.1903 16.3048Z" fill="#F5B88E"/>
<path d="M18.4639 16.6263C18.562 16.9807 18.3884 17.3352 18.0371 17.4589C17.8609 17.5207 17.9367 17.8025 18.1146 17.74C18.6143 17.5647 18.8877 17.0637 18.7451 16.5489C18.6951 16.3674 18.4135 16.4447 18.4639 16.6263Z" fill="#F5B88E"/>
<path d="M20.7527 16.7185C20.8396 16.9757 20.7416 17.2575 20.481 17.3663C20.31 17.4376 20.3846 17.7199 20.5582 17.6477C20.9595 17.48 21.1771 17.0633 21.0341 16.641C20.9746 16.4641 20.6927 16.5399 20.7527 16.7185Z" fill="#F5B88E"/>
</g>
<defs>
<clipPath id="clip0">
<rect width="30" height="30" fill="white"/>
</clipPath>
</defs>
</svg>
