<svg width="19" height="19" viewBox="0 0 19 19" fill="none" xmlns="http://www.w3.org/2000/svg">
<path d="M9.50004 0.33374C4.44819 0.33374 0.333374 4.44856 0.333374 9.50041C0.333374 14.5523 4.44819 18.6671 9.50004 18.6671C14.5519 18.6671 18.6667 14.5523 18.6667 9.50041C18.6667 4.44856 14.5519 0.33374 9.50004 0.33374ZM12.5556 9.80596C12.1889 10.3152 11.7408 10.7837 11.2519 11.2726C10.763 11.7615 10.2945 12.23 9.78523 12.5763C8.09449 13.7782 6.44449 14.1652 5.73152 13.4523L5.07967 12.8004C4.91671 12.6171 5.16115 12.1078 5.62967 11.6393C6.09819 11.1708 6.62782 10.9263 6.79078 11.0893L7.38152 11.68L7.34078 11.6393C7.74819 12.0467 8.54263 11.9245 9.39819 11.4356C9.76486 11.2115 10.1315 10.8856 10.4778 10.5393C10.8241 10.193 11.1297 9.86707 11.3537 9.50041C11.8834 8.62448 12.0056 7.80967 11.5982 7.40226L11.6389 7.443L11.0482 6.85226C10.8852 6.6893 11.1297 6.15967 11.5982 5.69115C12.0667 5.22263 12.5963 4.97819 12.7593 5.14115L13.4112 5.793C14.1445 6.48559 13.7371 8.11522 12.5556 9.80596Z" fill="#49585B"/>
</svg>
